<svg width="58" height="20" viewBox="0 0 58 20" fill="none" xmlns="http://www.w3.org/2000/svg">
<rect x="0.5" width="57" height="20" rx="10" fill="#CC3333"/>
<path d="M10.348 10.544L10.648 16.604H9.232L9.544 10.544H10.348ZM9.16 8.84C9.16 8.408 9.508 8.048 9.94 8.048C10.372 8.048 10.732 8.408 10.732 8.84C10.732 9.272 10.372 9.62 9.94 9.62C9.508 9.62 9.16 9.272 9.16 8.84ZM19.4105 14H18.1865L13.5905 7.064V14H12.4145V5.492H13.9865L18.2345 12.02V5.492H19.4105V14ZM25.1518 13.304C24.8398 13.904 24.1198 14.18 23.4478 14.18C22.1038 14.18 21.2878 13.172 21.2878 11.864V8.228H22.4158V11.696C22.4158 12.488 22.7758 13.184 23.7238 13.184C24.6358 13.184 25.0918 12.584 25.0918 11.708V8.228H26.2198V12.932C26.2198 13.388 26.2558 13.796 26.2798 14H25.1998C25.1758 13.868 25.1518 13.544 25.1518 13.304ZM28.7469 10.52H31.9029C31.8789 9.692 31.3389 9.044 30.3189 9.044C29.3709 9.044 28.7949 9.776 28.7469 10.52ZM32.0709 12.02L33.0429 12.356C32.7189 13.376 31.7949 14.18 30.4509 14.18C28.9029 14.18 27.5469 13.052 27.5469 11.096C27.5469 9.284 28.8549 8.048 30.3069 8.048C32.0829 8.048 33.0789 9.272 33.0789 11.072C33.0789 11.216 33.0669 11.36 33.0549 11.432H28.7109C28.7349 12.464 29.4789 13.184 30.4509 13.184C31.3869 13.184 31.8549 12.668 32.0709 12.02ZM39.3102 8.228L37.0062 14H35.8662L33.5262 8.228H34.7982L36.4422 12.68L38.0982 8.228H39.3102ZM42.7628 13.172C43.7228 13.172 44.5628 12.452 44.5628 11.108C44.5628 9.776 43.7228 9.056 42.7628 9.056C41.8028 9.056 40.9628 9.776 40.9628 11.108C40.9628 12.452 41.8028 13.172 42.7628 13.172ZM42.7628 8.048C44.4908 8.048 45.7148 9.356 45.7148 11.108C45.7148 12.872 44.4908 14.18 42.7628 14.18C41.0348 14.18 39.8108 12.872 39.8108 11.108C39.8108 9.356 41.0348 8.048 42.7628 8.048ZM48.3557 5.492L48.0557 11.564H47.2517L46.9397 5.492H48.3557ZM46.8677 13.28C46.8677 12.848 47.2157 12.488 47.6477 12.488C48.0797 12.488 48.4397 12.848 48.4397 13.28C48.4397 13.712 48.0797 14.06 47.6477 14.06C47.2157 14.06 46.8677 13.712 46.8677 13.28Z" fill="white"/>
</svg>
