<svg width="24" height="24" viewBox="0 0 24 24" fill="none" xmlns="http://www.w3.org/2000/svg">
<path fill-rule="evenodd" clip-rule="evenodd" d="M10.5049 6.99983C10.7151 7.00187 10.9015 7.13517 10.9715 7.33339L13.4865 14.4592L14.5257 11.3417C14.5937 11.1375 14.7848 10.9998 15 10.9998H17.5C17.7761 10.9998 18 11.2237 18 11.4998C18 11.7759 17.7761 11.9998 17.5 11.9998H15.3604L13.9743 16.1579C13.9068 16.3606 13.718 16.4979 13.5044 16.4998C13.2908 16.5017 13.0996 16.3676 13.0285 16.1662L10.4858 8.96177L9.46816 11.6754C9.39498 11.8705 9.20842 11.9998 9 11.9998H6.5C6.22386 11.9998 6 11.7759 6 11.4998C6 11.2237 6.22386 10.9998 6.5 10.9998H8.6535L10.0318 7.32424C10.1056 7.12742 10.2947 6.99778 10.5049 6.99983Z" fill="#CC3333"/>
<path fill-rule="evenodd" clip-rule="evenodd" d="M16.0105 4C14.7142 4 13.4701 4.53287 12.5544 5.48258L12.304 5.7421C12.2098 5.83977 12.0799 5.89495 11.9442 5.89495C11.8084 5.89495 11.6786 5.83977 11.5843 5.7421L11.3339 5.48252C9.42754 3.50643 6.32803 3.50643 4.42167 5.48252C3.23148 6.71624 2.78614 8.4308 3.09464 10.0271C3.14704 10.2982 2.96973 10.5605 2.6986 10.6129C2.42748 10.6653 2.16521 10.488 2.11281 10.2168C1.7461 8.31934 2.27283 6.26964 3.70198 4.78823C5.96545 2.44197 9.63649 2.40512 11.9442 4.67767C13.0341 3.605 14.4895 3 16.0105 3C17.5831 3 19.0854 3.64663 20.1863 4.78815C21.2794 5.92077 21.8888 7.44869 21.8888 9.03654C21.8888 10.6245 21.2793 12.1524 20.1863 13.2849C19.4303 14.0685 18.6775 14.8679 17.9216 15.6705C16.3904 17.2964 14.847 18.9352 13.2407 20.4821L13.238 20.4847C12.4908 21.1937 11.307 21.168 10.5917 20.4266L5.80918 15.4691C5.61746 15.2704 5.62314 14.9539 5.82188 14.7621C6.02062 14.5704 6.33715 14.5761 6.52887 14.7748L11.3114 19.7323C11.6448 20.0779 12.1993 20.0906 12.5485 19.7604C14.1373 18.2302 15.6503 16.6236 17.1706 15.0092C17.9306 14.2021 18.6925 13.393 19.4667 12.5906C20.3767 11.6477 20.8888 10.3698 20.8888 9.03654C20.8888 7.70331 20.3769 6.42563 19.4667 5.48259C18.551 4.53296 17.3069 4 16.0105 4Z" fill="#CC3333"/>
<path fill-rule="evenodd" clip-rule="evenodd" d="M10.5049 6.99983C10.7151 7.00187 10.9015 7.13517 10.9715 7.33339L13.4865 14.4592L14.5257 11.3417C14.5937 11.1375 14.7848 10.9998 15 10.9998H17.5C17.7761 10.9998 18 11.2237 18 11.4998C18 11.7759 17.7761 11.9998 17.5 11.9998H15.3604L13.9743 16.1579C13.9068 16.3606 13.718 16.4979 13.5044 16.4998C13.2908 16.5017 13.0996 16.3676 13.0285 16.1662L10.4858 8.96177L9.46816 11.6754C9.39498 11.8705 9.20842 11.9998 9 11.9998H6.5C6.22386 11.9998 6 11.7759 6 11.4998C6 11.2237 6.22386 10.9998 6.5 10.9998H8.6535L10.0318 7.32424C10.1056 7.12742 10.2947 6.99778 10.5049 6.99983Z" fill="#CC3333"/>
</svg>
