<svg width="24" height="24" viewBox="0 0 24 24" fill="none" xmlns="http://www.w3.org/2000/svg">
<path fill-rule="evenodd" clip-rule="evenodd" d="M11.7764 3.55279C11.9171 3.4824 12.0828 3.4824 12.2236 3.55279L23.2236 9.05279C23.4706 9.17628 23.5707 9.47662 23.4472 9.72361C23.3237 9.9706 23.0234 10.0707 22.7764 9.94721L12 4.55902L1.22359 9.94721C0.976605 10.0707 0.676269 9.9706 0.552774 9.72361C0.429279 9.47662 0.529391 9.17628 0.77638 9.05279L11.7764 3.55279ZM2.5 10.5C2.77614 10.5 3 10.7239 3 11V19.5H4.49999C4.77613 19.5 4.99999 19.7239 4.99999 20C4.99999 20.2761 4.77613 20.5 4.49999 20.5H2.5C2.36739 20.5 2.24022 20.4473 2.14645 20.3536C2.05268 20.2598 2 20.1326 2 20V11C2 10.7239 2.22386 10.5 2.5 10.5ZM6.99999 11C6.99999 10.7239 7.22385 10.5 7.49999 10.5H12.5238C12.7999 10.5 13.0238 10.7239 13.0238 11V20C13.0238 20.2761 12.7999 20.5 12.5238 20.5H7.49999C7.22385 20.5 6.99999 20.2761 6.99999 20V11ZM7.99999 11.5V19.5H12.0238V11.5H7.99999ZM17.5 11C17.5 10.7239 17.7239 10.5 18 10.5H21.5C21.6327 10.5 21.76 10.5528 21.8538 10.6467C21.9475 10.7405 22.0002 10.8679 22 11.0006L21.9895 20.0006C21.9892 20.2765 21.7654 20.5 21.4895 20.5H16C15.7239 20.5 15.5 20.2761 15.5 20C15.5 19.7239 15.7239 19.5 16 19.5H20.9901L20.9994 11.5H18C17.7239 11.5 17.5 11.2761 17.5 11Z" fill="#CC3333"/>
</svg>
