<svg width="40" height="40" viewBox="0 0 40 40" fill="none" xmlns="http://www.w3.org/2000/svg">
<path fill-rule="evenodd" clip-rule="evenodd" d="M1.66667 10C1.66667 9.53976 2.03976 9.16667 2.5 9.16667H21.6667V15C21.6667 16.3807 22.786 17.5 24.1667 17.5H34.0432C34.1898 17.5981 34.342 17.686 34.4978 17.7639L36.9514 18.9907C37.7983 19.4142 38.3333 20.2798 38.3333 21.2268V24.2641C38.3333 25.3402 37.6448 26.2956 36.6239 26.6358L34.8753 27.2187C34.3688 24.9938 32.3783 23.3333 30 23.3333C27.5215 23.3333 25.4642 25.1367 25.0687 27.5028C25.046 27.5009 25.0231 27.5 25 27.5H14.9309C14.5341 25.1352 12.4775 23.3333 10 23.3333C7.23858 23.3333 5 25.5719 5 28.3333C5 31.0948 7.23858 33.3333 10 33.3333C12.4775 33.3333 14.5341 31.5314 14.9309 29.1667H25C25.0231 29.1667 25.046 29.1657 25.0687 29.1639C25.4642 31.53 27.5215 33.3333 30 33.3333C32.5539 33.3333 34.6606 31.4186 34.9628 28.9464L37.1509 28.217C38.8524 27.6498 40 26.0576 40 24.2641V21.2268C40 19.6486 39.1083 18.2058 37.6967 17.5L35.2432 16.2732C34.89 16.0966 34.5991 15.8522 34.3983 15.5573C33.6878 14.5136 33.086 13.3937 32.4661 12.2284C30.8214 9.13687 27.5732 7.5 24.1667 7.5H2.5C1.11929 7.5 0 8.61929 0 10V20V25.3287C0 25.8223 0.146095 26.3048 0.419874 26.7155L1.80662 28.7956C2.06192 29.1785 2.57931 29.282 2.96225 29.0267C3.34519 28.7714 3.44867 28.254 3.19338 27.8711L1.80662 25.791C1.71537 25.6541 1.66667 25.4932 1.66667 25.3287V20.8333H12.5C12.9602 20.8333 13.3333 20.4602 13.3333 20C13.3333 19.5398 12.9602 19.1667 12.5 19.1667H1.66667V10ZM23.3333 15V9.16667H24.1667C27.0553 9.16667 29.6828 10.5451 30.9947 13.0112C31.4912 13.9445 32.0046 14.9042 32.5883 15.8333H24.1667C23.7064 15.8333 23.3333 15.4602 23.3333 15ZM33.3333 28.3158C33.333 28.3274 33.333 28.339 33.3333 28.3506C33.324 30.1836 31.8352 31.6667 30 31.6667C28.1591 31.6667 26.6667 30.1743 26.6667 28.3333C26.6667 26.4924 28.1591 25 30 25C31.8351 25 33.3239 26.4829 33.3333 28.3158ZM10 25C8.15905 25 6.66667 26.4924 6.66667 28.3333C6.66667 30.1743 8.15905 31.6667 10 31.6667C11.841 31.6667 13.3333 30.1743 13.3333 28.3333C13.3333 26.4924 11.841 25 10 25Z" fill="white"/>
</svg>
