<svg width="24" height="24" viewBox="0 0 24 24" fill="none" xmlns="http://www.w3.org/2000/svg">
<path fill-rule="evenodd" clip-rule="evenodd" d="M4.50002 3C3.6716 3 3.00003 3.67157 3.00002 4.49999L3 9.49999C3 10.3284 3.67157 11 4.5 11H9.5C10.3284 11 11 10.3284 11 9.50001L11 4.50001C11 3.67158 10.3285 3 9.50002 3H4.50002ZM4.00002 4.5C4.00002 4.22386 4.22388 4 4.50002 4H9.50002C9.77617 4 10 4.22386 10 4.5L10 9.5C10 9.77614 9.77614 10 9.5 10H4.5C4.22386 10 4 9.77614 4 9.5L4.00002 4.5Z" fill="#CC3333"/>
<path fill-rule="evenodd" clip-rule="evenodd" d="M4.50002 13C3.6716 13 3.00003 13.6716 3.00002 14.5L3 19.5C3 20.3284 3.67157 21 4.5 21H9.5C10.3284 21 11 20.3284 11 19.5L11 14.5C11 13.6716 10.3285 13 9.50002 13H4.50002ZM4.00002 14.5C4.00002 14.2239 4.22388 14 4.50002 14H9.50002C9.77617 14 10 14.2239 10 14.5L10 19.5C10 19.7761 9.77614 20 9.5 20H4.5C4.22386 20 4 19.7761 4 19.5L4.00002 14.5Z" fill="#CC3333"/>
<path fill-rule="evenodd" clip-rule="evenodd" d="M13 4.49999C13 3.67157 13.6716 3 14.5 3H19.5C20.3285 3 21 3.67158 21 4.50001L21 9.50001C21 10.3284 20.3284 11 19.5 11H14.5C13.6716 11 13 10.3284 13 9.49999L13 4.49999ZM14.5 4C14.2239 4 14 4.22386 14 4.5L14 9.5C14 9.77614 14.2239 10 14.5 10H19.5C19.7761 10 20 9.77614 20 9.5L20 4.5C20 4.22386 19.7762 4 19.5 4H14.5Z" fill="#CC3333"/>
<path d="M17.5 13.5C17.5 13.2239 17.2761 13 17 13C16.7239 13 16.5 13.2239 16.5 13.5V16.5H13.5C13.2239 16.5 13 16.7239 13 17C13 17.2761 13.2239 17.5 13.5 17.5H16.5V20.5C16.5 20.7761 16.7239 21 17 21C17.2761 21 17.5 20.7761 17.5 20.5V17.5H20.5C20.7761 17.5 21 17.2761 21 17C21 16.7239 20.7761 16.5 20.5 16.5H17.5V13.5Z" fill="#CC3333"/>
</svg>
