<svg width="33" height="32" viewBox="0 0 33 32" fill="none" xmlns="http://www.w3.org/2000/svg">
<path fill-rule="evenodd" clip-rule="evenodd" d="M27.1645 3.11848C28.7001 3.11848 30.022 4.20299 30.322 5.70901L30.9984 9.1042C31.1283 9.75602 31.2806 10.5919 31.0394 11.4113C30.6929 12.5884 29.8434 13.5504 28.7392 14.0478C28.7394 14.0536 28.7394 14.0593 28.7394 14.0651V28.2312C28.7394 28.5868 28.4511 28.8751 28.0955 28.8751H25.5199C25.1642 28.8751 24.8759 28.5868 24.8759 28.2312C24.8759 27.8756 25.1642 27.5873 25.5199 27.5873H27.4516V14.3936C27.3099 14.408 27.1662 14.4155 27.0206 14.4155C25.5266 14.4155 24.2554 13.6437 23.5366 12.4828C22.7922 13.6451 21.4894 14.4154 20.0068 14.4154C18.5121 14.4154 17.2364 13.6513 16.5172 12.4918C15.7718 13.649 14.472 14.4154 12.9931 14.4154C11.5108 14.4154 10.2084 13.6454 9.46384 12.4837C8.74535 13.6446 7.4738 14.4155 5.9794 14.4155C5.83731 14.4155 5.69688 14.4084 5.55844 14.3946V27.5873H7.49018C7.84581 27.5873 8.1341 27.8756 8.1341 28.2312C8.1341 28.5868 7.84581 28.8751 7.49018 28.8751H4.91453C4.5589 28.8751 4.27061 28.5868 4.27061 28.2312V14.0651L4.27074 14.0523C3.16168 13.5561 2.30818 12.5919 1.96065 11.4113C1.71947 10.5919 1.87174 9.75602 2.0016 9.1042L2.678 5.70901C2.97803 4.20299 4.2999 3.11848 5.83552 3.11848H27.1645ZM5.83552 4.40631C4.91415 4.40631 4.12102 5.05701 3.941 5.96063L3.26461 9.35582C3.13036 10.0297 3.05554 10.5702 3.19607 11.0476C3.55018 12.2506 4.6632 13.1276 5.9794 13.1276C7.55863 13.1276 8.78976 11.8777 8.80463 10.2762L8.80435 10.2266C8.80435 9.87099 9.09264 9.5827 9.44826 9.5827C9.80267 9.5827 10.0902 9.86903 10.0922 10.223L10.0922 10.2266L10.0925 10.2722C10.1169 11.8533 11.4062 13.1276 12.9931 13.1276C14.5611 13.1276 15.8385 11.8836 15.8923 10.3287C15.892 10.3081 15.8919 10.2875 15.8919 10.2668C15.8919 10.2481 15.8927 10.2295 15.8943 10.2111C15.9025 9.86265 16.1875 9.5827 16.538 9.5827C16.8936 9.5827 17.1819 9.87099 17.1819 10.2266C17.1819 10.2634 17.1814 10.3001 17.1805 10.3367C17.2155 11.9132 18.4359 13.1276 20.0068 13.1276C21.5861 13.1276 22.8707 11.8654 22.9069 10.2947L22.9066 10.2435C22.9066 10.2265 22.9073 10.2097 22.9086 10.1931C22.926 9.85307 23.2072 9.5827 23.5516 9.5827C23.9073 9.5827 24.1955 9.87099 24.1955 10.2266C24.1955 10.2506 24.1953 10.2746 24.1949 10.2985C24.2227 11.8883 25.4504 13.1276 27.0206 13.1276C28.3368 13.1276 29.4499 12.2506 29.804 11.0476C29.9445 10.5702 29.8697 10.0297 29.7354 9.35582L29.059 5.96063C28.879 5.05701 28.0859 4.40631 27.1645 4.40631H5.83552Z" fill="white"/>
<path fill-rule="evenodd" clip-rule="evenodd" d="M10.0658 17.9286C10.0658 17.2174 10.6424 16.6408 11.3536 16.6408H21.6562C22.3675 16.6408 22.9441 17.2174 22.9441 17.9286V27.5933C22.9441 28.3045 22.3675 28.8811 21.6562 28.8811H11.3536C10.6424 28.8811 10.0658 28.3045 10.0658 27.5933V17.9286ZM17.149 17.9286H21.6562V27.5933H11.3536V17.9286H15.8611V27.5871H17.149V17.9286Z" fill="white"/>
</svg>
