<svg width="24" height="25" viewBox="0 0 24 25" fill="none" xmlns="http://www.w3.org/2000/svg">
<path fill-rule="evenodd" clip-rule="evenodd" d="M19.9984 3.24805C21.1501 3.24805 22.1415 4.06142 22.3665 5.19094L22.8738 7.73733C22.9712 8.2262 23.0854 8.85313 22.9046 9.46764C22.6447 10.3504 22.0076 11.072 21.1794 11.4451C21.1795 11.4494 21.1796 11.4537 21.1796 11.458V22.0826C21.1796 22.3493 20.9634 22.5655 20.6967 22.5655H18.7649C18.4982 22.5655 18.282 22.3493 18.282 22.0826C18.282 21.8159 18.4982 21.5997 18.7649 21.5997H20.2137V11.7044C20.1075 11.7152 19.9996 11.7208 19.8905 11.7208C18.77 11.7208 17.8166 11.142 17.2775 10.2713C16.7191 11.143 15.7421 11.7207 14.6301 11.7207C13.5091 11.7207 12.5523 11.1476 12.0129 10.278C11.4539 11.1459 10.479 11.7207 9.36986 11.7207C8.25814 11.7207 7.28129 11.1433 6.72289 10.2719C6.18403 11.1426 5.23036 11.7208 4.10957 11.7208C4.003 11.7208 3.89767 11.7155 3.79385 11.7051V21.5997H5.24265C5.50937 21.5997 5.72559 21.8159 5.72559 22.0826C5.72559 22.3493 5.50937 22.5655 5.24265 22.5655H3.31091C3.04419 22.5655 2.82797 22.3493 2.82797 22.0826V11.458L2.82807 11.4484C1.99627 11.0763 1.35615 10.3531 1.09551 9.46764C0.914615 8.85313 1.02882 8.2262 1.12622 7.73733L1.63351 5.19094C1.85854 4.06142 2.84994 3.24805 4.00165 3.24805H19.9984ZM4.00165 4.21392C3.31063 4.21392 2.71578 4.70194 2.58077 5.37965L2.07347 7.92605C1.97278 8.43145 1.91667 8.83685 2.02207 9.19489C2.28765 10.0971 3.12242 10.7549 4.10957 10.7549C5.29399 10.7549 6.21734 9.81747 6.22849 8.61632L6.22827 8.57914C6.22827 8.31242 6.44449 8.09621 6.71121 8.09621C6.97702 8.09621 7.19268 8.31096 7.19414 8.57643L7.19415 8.57914L7.19441 8.61333C7.21268 9.79918 8.17966 10.7549 9.36986 10.7549C10.5458 10.7549 11.5039 9.82186 11.5442 8.6557C11.544 8.64026 11.5439 8.6248 11.5439 8.6093C11.5439 8.59523 11.5445 8.58129 11.5457 8.56752C11.5519 8.30617 11.7657 8.09621 12.0285 8.09621C12.2952 8.09621 12.5114 8.31242 12.5114 8.57914C12.5114 8.60674 12.5111 8.63426 12.5104 8.66169C12.5367 9.84405 13.4519 10.7549 14.6301 10.7549C15.8146 10.7549 16.7781 9.80824 16.8052 8.63023L16.805 8.59179C16.805 8.57908 16.8055 8.56649 16.8064 8.55403C16.8195 8.29898 17.0304 8.09621 17.2887 8.09621C17.5555 8.09621 17.7717 8.31242 17.7717 8.57914C17.7717 8.59715 17.7715 8.61511 17.7712 8.63305C17.792 9.82544 18.7128 10.7549 19.8905 10.7549C20.8776 10.7549 21.7124 10.0971 21.978 9.19489C22.0834 8.83685 22.0273 8.43145 21.9266 7.92605L21.4193 5.37965C21.2843 4.70194 20.6894 4.21392 19.9984 4.21392H4.00165Z" fill="#CC3333"/>
<path fill-rule="evenodd" clip-rule="evenodd" d="M7.17436 14.3556C7.17436 13.8222 7.60679 13.3898 8.14023 13.3898H15.8672C16.4006 13.3898 16.8331 13.8222 16.8331 14.3556V21.6042C16.8331 22.1376 16.4006 22.57 15.8672 22.57H8.14023C7.60679 22.57 7.17436 22.1376 7.17436 21.6042V14.3556ZM12.4867 14.3556H15.8672V21.6042H8.14023V14.3556H11.5209V21.5995H12.4867V14.3556Z" fill="#CC3333"/>
</svg>
