<svg width="32" height="32" viewBox="0 0 32 32" fill="none" xmlns="http://www.w3.org/2000/svg">
<path fill-rule="evenodd" clip-rule="evenodd" d="M14.0058 9.3331C14.2861 9.33583 14.5347 9.51356 14.628 9.77786L17.9813 19.2789L19.3669 15.1223C19.4576 14.85 19.7124 14.6664 19.9994 14.6664H23.3327C23.7009 14.6664 23.9993 14.9649 23.9993 15.3331C23.9993 15.7013 23.7009 15.9997 23.3327 15.9997H20.4799L18.6318 21.5439C18.5417 21.8141 18.29 21.9972 18.0052 21.9997C17.7204 22.0022 17.4655 21.8235 17.3707 21.555L13.9804 11.949L12.6236 15.5672C12.526 15.8274 12.2772 15.9997 11.9993 15.9997H8.66602C8.29783 15.9997 7.99935 15.7013 7.99935 15.3331C7.99935 14.9649 8.29783 14.6664 8.66602 14.6664H11.5373L13.3751 9.76566C13.4735 9.50323 13.7256 9.33037 14.0058 9.3331Z" fill="#CC3333"/>
<path fill-rule="evenodd" clip-rule="evenodd" d="M21.3467 5.33333C19.6182 5.33333 17.9595 6.04382 16.7385 7.31011L16.4047 7.65613C16.2791 7.78637 16.1059 7.85993 15.9249 7.85993C15.7439 7.85993 15.5708 7.78637 15.4451 7.65613L15.1112 7.31003C12.5694 4.67524 8.43673 4.67524 5.8949 7.31003C4.30798 8.95499 3.71421 11.2411 4.12554 13.3695C4.1954 13.731 3.95898 14.0807 3.59748 14.1505C3.23598 14.2204 2.88629 13.984 2.81643 13.6225C2.32748 11.0924 3.02978 8.35953 4.93532 6.3843C7.95328 3.25596 12.848 3.20683 15.9249 6.23689C17.3781 4.80667 19.3186 4 21.3467 4C23.4435 4 25.4466 4.86218 26.9144 6.38421C28.3718 7.89436 29.1845 9.93159 29.1845 12.0487C29.1845 14.1659 28.3718 16.2033 26.9144 17.7132C25.9064 18.7581 24.9026 19.8239 23.8949 20.894C21.8533 23.0618 19.7954 25.247 17.6536 27.3095L17.6501 27.3129C16.6538 28.2583 15.0753 28.224 14.1217 27.2355L7.74492 20.6255C7.48929 20.3605 7.49687 19.9385 7.76185 19.6828C8.02684 19.4272 8.44888 19.4348 8.70451 19.6998L15.0812 26.3097C15.5258 26.7705 16.2651 26.7875 16.7307 26.3472C18.8491 24.307 20.8664 22.1648 22.8935 20.0122C23.9069 18.9361 24.9227 17.8573 25.9549 16.7874C27.1683 15.5302 27.8511 13.8264 27.8511 12.0487C27.8511 10.2711 27.1685 8.5675 25.955 7.31013C24.734 6.04395 23.0752 5.33333 21.3467 5.33333Z" fill="#CC3333"/>
<path fill-rule="evenodd" clip-rule="evenodd" d="M14.0058 9.3331C14.2861 9.33583 14.5347 9.51356 14.628 9.77786L17.9813 19.2789L19.3669 15.1223C19.4576 14.85 19.7124 14.6664 19.9994 14.6664H23.3327C23.7009 14.6664 23.9993 14.9649 23.9993 15.3331C23.9993 15.7013 23.7009 15.9997 23.3327 15.9997H20.4799L18.6318 21.5439C18.5417 21.8141 18.29 21.9972 18.0052 21.9997C17.7204 22.0022 17.4655 21.8235 17.3707 21.555L13.9804 11.949L12.6236 15.5672C12.526 15.8274 12.2772 15.9997 11.9993 15.9997H8.66602C8.29783 15.9997 7.99935 15.7013 7.99935 15.3331C7.99935 14.9649 8.29783 14.6664 8.66602 14.6664H11.5373L13.3751 9.76566C13.4735 9.50323 13.7256 9.33037 14.0058 9.3331Z" fill="#CC3333"/>
</svg>
