<svg width="24" height="24" viewBox="0 0 24 24" fill="none" xmlns="http://www.w3.org/2000/svg">
<path fill-rule="evenodd" clip-rule="evenodd" d="M6.2738 17.5334L6.27361 17.5432C6.24703 18.9019 6.81769 19.7494 7.51894 20.1645C8.23943 20.5909 9.23939 20.6462 10.2273 20.1239L10.2385 20.1181L10.2498 20.1124C10.7924 19.8429 11.3931 19.7035 12.0005 19.7035C12.608 19.7035 13.2087 19.8429 13.7513 20.1124L13.7602 20.1169L13.7691 20.1215C14.2475 20.3712 14.7915 20.4992 15.3451 20.4887L15.3545 20.4886H15.3639C16.0593 20.4886 16.6216 20.2109 17.0256 19.7347C17.4395 19.2467 17.7273 18.4976 17.7273 17.5236C17.7273 16.5021 17.3659 15.458 16.7472 14.506C16.4566 14.0589 16.1135 13.6391 15.735 13.2605C14.4815 12.0065 13.0554 11.2075 12.0005 11.2075C10.9544 11.2075 9.54113 11.9962 8.29097 13.2359C7.89631 13.6273 7.53939 14.0634 7.23938 14.5287C6.62945 15.4749 6.2738 16.5105 6.2738 17.5236V17.5334ZM6.7291 11.9715C6.75762 11.8802 6.78123 11.7868 6.79999 11.6921C6.93084 11.0313 6.83596 10.2704 6.50574 9.55574C6.17558 8.84118 5.65849 8.27761 5.06965 7.95416C4.48053 7.63055 3.79074 7.53619 3.17109 7.83045C2.55335 8.1238 2.18727 8.71701 2.05666 9.37662C1.92581 10.0374 2.02068 10.7983 2.3509 11.513C2.68106 12.2276 3.19815 12.7911 3.78699 13.1146C4.37611 13.4382 5.06591 13.5326 5.68556 13.2383C5.6906 13.2359 5.69562 13.2335 5.70063 13.2311C6.22112 12.9781 6.56066 12.5107 6.7291 11.9715ZM7.59556 12.5172C7.59265 12.5201 7.58974 12.523 7.58684 12.5259C7.14345 12.9655 6.74039 13.4573 6.39947 13.986L6.3989 13.9869C5.70907 15.057 5.2738 16.278 5.2738 17.5236C5.20821 20.8756 8.16125 22.3474 10.6947 21.008C11.0973 20.808 11.5455 20.7035 12.0005 20.7035C12.4556 20.7035 12.9038 20.808 13.3064 21.008C13.9354 21.3363 14.6451 21.5021 15.3639 21.4886C17.3441 21.4886 18.7273 19.8582 18.7273 17.5236C18.7273 16.2785 18.2926 15.0582 17.6035 13.9886C17.5976 13.9794 17.5917 13.9703 17.5857 13.9611C17.2554 13.4529 16.8678 12.9792 16.4423 12.5535C16.4292 12.5405 16.4162 12.5274 16.403 12.5144C15.0979 11.2214 13.446 10.2075 12.0005 10.2075C10.5542 10.2075 8.90105 11.2254 7.59556 12.5172ZM17.2699 11.9691C17.4383 12.5106 17.779 12.98 18.3021 13.2331C18.3062 13.2351 18.3103 13.2371 18.3144 13.239C18.9341 13.5333 19.6239 13.4389 20.213 13.1153C20.8018 12.7919 21.3189 12.2283 21.6491 11.5138C21.9793 10.7991 22.0742 10.0382 21.9433 9.37738C21.8127 8.71777 21.4466 8.12455 20.8289 7.8312C20.2093 7.53694 19.5195 7.6313 18.9303 7.95491C18.3415 8.27837 17.8244 8.84193 17.4943 9.5565C17.164 10.2712 17.0692 11.0321 17.2 11.6929C17.2185 11.7865 17.2418 11.8788 17.2699 11.9691ZM18.402 9.97594C18.6526 9.43356 19.0303 9.04097 19.4118 8.83138C19.7948 8.621 20.1403 8.61123 20.3999 8.73452C20.6605 8.85825 20.8761 9.1357 20.9624 9.57162C21.0483 10.0053 20.9919 10.552 20.7413 11.0943C20.4907 11.6367 20.1131 12.0293 19.7316 12.2389C19.3486 12.4492 19.003 12.459 18.7434 12.3357C18.4829 12.212 18.2673 11.9346 18.181 11.4986C18.0951 11.0649 18.1515 10.5182 18.402 9.97594ZM15.5818 3.51417C15.2204 3.45386 14.8114 3.59027 14.4351 3.96125C14.0601 4.331 13.7536 4.90628 13.64 5.60605C13.5264 6.30579 13.6347 6.95088 13.8735 7.42388C14.1132 7.89867 14.4585 8.16141 14.8204 8.22179C15.1818 8.2821 15.5909 8.14569 15.9672 7.77471C16.3422 7.40496 16.6487 6.82968 16.7623 6.12991C16.8759 5.43017 16.7675 4.78508 16.5287 4.31208C16.289 3.83729 15.9437 3.57455 15.5818 3.51417ZM10.3494 5.60681C10.2358 4.90704 9.92932 4.33177 9.5543 3.96202C9.17804 3.59103 8.76898 3.45463 8.40754 3.51494C8.04568 3.57532 7.70037 3.83806 7.46066 4.31285C7.22186 4.78585 7.1135 5.43094 7.22711 6.13068C7.34072 6.83044 7.6472 7.40572 8.02223 7.77547C8.39849 8.14645 8.80755 8.28286 9.169 8.22255C9.53085 8.16217 9.87616 7.89944 10.1159 7.42464C10.3547 6.95164 10.463 6.30655 10.3494 5.60681ZM5.59796 9.97518C5.34735 9.4328 4.96974 9.04022 4.5882 8.83063C4.20521 8.62025 3.85968 8.61048 3.60005 8.73377C3.33952 8.85749 3.12393 9.13494 3.03761 9.57087C2.95173 10.0046 3.00812 10.5513 3.25869 11.0936C3.50929 11.6359 3.8869 12.0285 4.26844 12.2381C4.65143 12.4485 4.99696 12.4583 5.25659 12.335C5.51712 12.2113 5.73272 11.9338 5.81904 11.4979C5.90492 11.0642 5.84853 10.5175 5.59796 9.97518ZM13.733 3.24916C14.2748 2.71493 14.991 2.40177 15.7464 2.52781C16.5009 2.65371 17.0782 3.18171 17.4214 3.8614C17.765 4.54195 17.8932 5.40395 17.7493 6.29016C17.6055 7.17632 17.2113 7.95235 16.6692 8.4868C16.1274 9.02103 15.4112 9.3342 14.6558 9.20815C13.9013 9.08225 13.324 8.55425 12.9809 7.87456C12.6373 7.19401 12.509 6.33202 12.6529 5.4458C12.7968 4.55964 13.1909 3.78361 13.733 3.24916ZM10.2564 3.24993C10.7985 3.78438 11.1926 4.56041 11.3365 5.44656C11.4804 6.33278 11.3521 7.19477 11.0085 7.87533C10.6654 8.55502 10.0881 9.08302 9.33358 9.20891C8.57817 9.33496 7.86198 9.02179 7.32014 8.48756C6.77807 7.95311 6.3839 7.17708 6.24003 6.29093C6.09615 5.40471 6.22439 4.54271 6.56798 3.86216C6.91113 3.18247 7.48844 2.65447 8.24295 2.52857C8.99836 2.40253 9.71455 2.7157 10.2564 3.24993Z" fill="#CC3333"/>
</svg>
