<svg width="32" height="32" viewBox="0 0 32 32" fill="none" xmlns="http://www.w3.org/2000/svg">
<path fill-rule="evenodd" clip-rule="evenodd" d="M31.0705 13.9191C32.0258 14.8408 32.2035 16.1319 31.7895 17.4864C31.7796 17.5188 31.7698 17.5509 31.7601 17.5827C31.2746 19.172 31.0201 20.0052 30.1917 20.9087C29.7507 21.3897 29.2949 21.6448 28.9301 21.7775C28.7492 21.8432 28.5935 21.8779 28.476 21.8962C28.4173 21.9054 28.3679 21.9105 28.3296 21.9132C28.3104 21.9146 28.2939 21.9155 28.2804 21.9159L28.2623 21.9164L28.2549 21.9165L28.2516 21.9165L28.2501 21.9165C28.2501 21.9165 28.2486 21.9165 28.2486 21.2499V21.9165H27.3334C26.9652 21.9165 26.6668 21.6181 26.6668 21.2499C26.6668 20.8817 26.9652 20.5832 27.3334 20.5832H28.2355C28.2414 20.5827 28.2534 20.5815 28.2707 20.5788C28.312 20.5724 28.3831 20.5576 28.4745 20.5244C28.654 20.4591 28.924 20.3184 29.2089 20.0077C29.8156 19.3459 29.9929 18.8032 30.5144 17.0967C30.8263 16.0762 30.6411 15.3576 30.1447 14.8786C29.6042 14.357 28.5482 13.9704 26.8082 13.9998L26.7969 14L16.6352 13.9999C16.267 13.9999 15.9685 13.7014 15.9685 13.3332C15.9685 12.965 16.267 12.6665 16.6352 12.6665H26.7914C28.6778 12.6356 30.1602 13.0408 31.0705 13.9191Z" fill="#CC3333"/>
<path fill-rule="evenodd" clip-rule="evenodd" d="M11.3134 8C11.3177 8 11.3219 8 11.3261 8H15.3585C17.0135 8 18.6261 8.53464 19.9928 9.52842L23.2337 11.8849C23.2402 11.8897 23.2466 11.8945 23.253 11.8995L23.257 11.9025C23.2624 11.9066 23.272 11.9138 23.2854 11.9235C23.3123 11.943 23.3545 11.9728 23.4101 12.0094C23.5218 12.083 23.685 12.1825 23.8848 12.282C24.2931 12.4854 24.81 12.6667 25.3333 12.6667C25.7015 12.6667 26 12.9651 26 13.3333C26 13.7015 25.7015 14 25.3333 14C24.5233 14 23.7944 13.7266 23.2902 13.4755C23.0337 13.3477 22.824 13.2199 22.6768 13.123C22.603 13.0744 22.5443 13.0331 22.5026 13.0029C22.4818 12.9878 22.4651 12.9754 22.453 12.9662L22.4425 12.9582L19.2087 10.6068C18.0629 9.77362 16.7232 9.33333 15.3585 9.33333H11.3333C10.79 9.33333 10.045 9.3349 9.12233 9.63415C8.20206 9.93261 7.06923 10.5402 5.80473 11.8047L5.33349 11.3335C5.80473 11.8047 5.80473 11.8047 5.80473 11.8047L5.80378 11.8057L5.80277 11.8067L5.80055 11.8089L5.79534 11.814L5.7818 11.8269C5.77138 11.8367 5.75811 11.8488 5.74186 11.8632C5.70934 11.8919 5.66488 11.9293 5.60721 11.9742C5.49182 12.0639 5.3238 12.1832 5.09299 12.3217C4.63127 12.5987 3.91994 12.9859 2.87766 13.3333C1.91041 13.6557 1.60966 13.9253 1.4885 14.1272C1.35251 14.3539 1.3335 14.6454 1.3335 15.3675C1.3335 15.797 1.52798 16.7096 1.81065 17.7611C2.0843 18.7791 2.41359 19.833 2.63263 20.4901C2.74906 20.8394 2.56028 21.2169 2.21099 21.3333C1.86169 21.4498 1.48415 21.261 1.36771 20.9117C1.1423 20.2355 0.804927 19.156 0.523026 18.1073C0.250137 17.0921 0.000169886 16.0048 0.000169886 15.3675C0.000169886 15.3388 0.000128004 15.3099 8.58037e-05 15.2808C-0.000770437 14.6901 -0.0017424 14.0194 0.345175 13.4412C0.724011 12.8098 1.42326 12.4127 2.45602 12.0684C3.41373 11.7492 4.03539 11.4013 4.407 11.1783C4.59286 11.0668 4.71651 10.9778 4.78862 10.9217C4.82469 10.8936 4.84794 10.8738 4.8597 10.8634L4.86757 10.8563C6.26762 9.45781 7.57723 8.73356 8.71099 8.36585C9.72773 8.0361 10.5744 8.00356 11.1477 8.00035C11.155 8.00012 11.1622 8 11.1695 8H11.3134Z" fill="#CC3333"/>
<path fill-rule="evenodd" clip-rule="evenodd" d="M11.3334 21.3334C11.3334 20.9652 11.6319 20.6667 12.0001 20.6667H20.0001C20.3683 20.6667 20.6668 20.9652 20.6668 21.3334C20.6668 21.7015 20.3683 22 20.0001 22H12.0001C11.6319 22 11.3334 21.7015 11.3334 21.3334Z" fill="#CC3333"/>
<path fill-rule="evenodd" clip-rule="evenodd" d="M8.33342 18C6.67657 18 5.33342 19.3431 5.33342 21C5.33342 22.6569 6.67657 24 8.33342 24C9.99028 24 11.3334 22.6569 11.3334 21C11.3334 19.3431 9.99028 18 8.33342 18ZM4.00009 21C4.00009 18.6068 5.94019 16.6667 8.33342 16.6667C10.7267 16.6667 12.6668 18.6068 12.6668 21C12.6668 23.3932 10.7267 25.3333 8.33342 25.3333C5.94019 25.3333 4.00009 23.3932 4.00009 21Z" fill="#CC3333"/>
<path fill-rule="evenodd" clip-rule="evenodd" d="M23.6668 18C22.0099 18 20.6668 19.3431 20.6668 21C20.6668 22.6569 22.0099 24 23.6668 24C25.3236 24 26.6668 22.6569 26.6668 21C26.6668 19.3431 25.3236 18 23.6668 18ZM19.3334 21C19.3334 18.6068 21.2735 16.6667 23.6668 16.6667C26.06 16.6667 28.0001 18.6068 28.0001 21C28.0001 23.3932 26.06 25.3333 23.6668 25.3333C21.2735 25.3333 19.3334 23.3932 19.3334 21Z" fill="#CC3333"/>
</svg>
