<svg width="24" height="24" viewBox="0 0 24 24" fill="none" xmlns="http://www.w3.org/2000/svg">
<path fill-rule="evenodd" clip-rule="evenodd" d="M13.0002 5.5C13.0002 5.22386 13.2241 5 13.5002 5H15.1617C15.5706 5 15.9383 5.24895 16.0902 5.62861L16.4293 6.47641L17.6911 5.84553C18.2808 5.55066 18.9895 5.89728 19.1189 6.54384L19.3709 7.80388C19.4946 8.42267 19.0213 9 18.3903 9H17.4387L17.9609 10.3056C17.9633 10.3111 17.9655 10.3166 17.9676 10.3222L18.6776 12.0972C18.9414 12.0337 19.2169 12 19.5002 12C21.4332 12 23.0002 13.567 23.0002 15.5C23.0002 17.433 21.4332 19 19.5002 19C17.5672 19 16.0002 17.433 16.0002 15.5C16.0002 14.2049 16.7036 13.0741 17.7492 12.4688L17.3546 11.4824L14.0407 15.6247C13.851 15.8619 13.5636 16 13.2599 16L8.96474 16C8.72213 17.6961 7.26342 19 5.50018 19C3.56718 19 2.00018 17.433 2.00018 15.5C2.00018 13.567 3.56718 12 5.50018 12C7.26341 12 8.72211 13.3038 8.96473 15L13.2599 15L14.0599 14H10.7678C10.4334 14 10.1212 13.8329 9.93572 13.5547L8.23259 11H5.59742C5.58299 11.0013 5.56838 11.0019 5.55362 11.0019C4.88546 11.0019 4.25274 11.1478 3.68444 11.409C2.99318 11.7268 2.39609 12.2157 1.94796 12.8217C1.78378 13.0438 1.47069 13.0907 1.24866 12.9265C1.02662 12.7623 0.979721 12.4492 1.1439 12.2272C1.64569 11.5486 2.30056 10.9898 3.05805 10.6018C2.1278 10.074 1.50018 9.07456 1.50018 7.92857C1.50018 7.41574 1.91592 7 2.42875 7H6.23259C6.56694 7 6.87917 7.1671 7.06464 7.4453L7.70943 8.41248L11.716 7.17971C13.1828 6.72836 14.761 7.40367 15.4474 8.77639C15.4811 8.84367 15.5 8.91963 15.5 9C15.5 9.27614 15.2761 9.5 15 9.5C14.7989 9.5 14.6255 9.38126 14.5461 9.21006C14.0748 8.28368 13.0049 7.82938 12.01 8.13549L8.28821 9.28066L10.7678 13H14.8599L16.9278 10.4152L15.1617 6H13.5002C13.2241 6 13.0002 5.77614 13.0002 5.5ZM17.0387 8L16.802 7.40811L18.1383 6.73996L18.3903 8H17.0387ZM19.036 15.6857L18.1261 13.4111C17.4478 13.8582 17.0002 14.6268 17.0002 15.5C17.0002 16.8807 18.1195 18 19.5002 18C20.8809 18 22.0002 16.8807 22.0002 15.5C22.0002 14.1193 20.8809 13 19.5002 13C19.3481 13 19.1992 13.0136 19.0546 13.0396L19.9644 15.3143C20.067 15.5707 19.9423 15.8617 19.6859 15.9642C19.4295 16.0668 19.1385 15.9421 19.036 15.6857ZM4.57161 10C3.4515 10 2.53904 9.11094 2.50139 8H6.23259L7.56592 10H4.57161ZM7.95017 15C7.71852 13.8589 6.70965 13 5.50018 13C4.11947 13 3.00018 14.1193 3.00018 15.5C3.00018 16.8807 4.11947 18 5.50018 18C6.70967 18 7.71855 17.1411 7.95018 16L5.50018 15.9999C5.22404 15.9999 5.00018 15.7761 5.00018 15.4999C5.00018 15.2238 5.22404 14.9999 5.50018 14.9999L7.95017 15Z" fill="white"/>
</svg>
