<svg width="40" height="40" viewBox="0 0 40 40" fill="none" xmlns="http://www.w3.org/2000/svg">
<path fill-rule="evenodd" clip-rule="evenodd" d="M10.4564 29.2222L10.4561 29.2385C10.4117 31.503 11.3629 32.9156 12.5316 33.6073C13.7324 34.318 15.399 34.4102 17.0456 33.5397L17.0642 33.5299L17.083 33.5206C17.9873 33.0713 18.9885 32.8389 20.0009 32.8389C21.0134 32.8389 22.0145 33.0713 22.9189 33.5206L22.9338 33.528L22.9485 33.5357C23.746 33.9519 24.6525 34.1651 25.5751 34.1477L25.5908 34.1474H25.6065C26.7655 34.1474 27.7027 33.6846 28.376 32.8909C29.066 32.0776 29.5455 30.8292 29.5455 29.2059C29.5455 27.5034 28.9432 25.7631 27.9121 24.1766C27.4277 23.4313 26.8559 22.7317 26.2251 22.1006C24.1359 20.0106 21.759 18.6791 20.0009 18.6791C18.2574 18.6791 15.9019 19.9935 13.8183 22.0597C13.1606 22.712 12.5657 23.4388 12.0657 24.2144C11.0491 25.7913 10.4564 27.5174 10.4564 29.2059V29.2222ZM11.2152 19.9523C11.2627 19.8002 11.3021 19.6446 11.3334 19.4867C11.5514 18.3854 11.3933 17.1172 10.8429 15.9261C10.2927 14.7351 9.43086 13.7959 8.44946 13.2568C7.46759 12.7174 6.31793 12.5602 5.28518 13.0506C4.25563 13.5395 3.64549 14.5282 3.4278 15.6275C3.20972 16.7289 3.36784 17.997 3.91821 19.1882C4.46848 20.3791 5.33029 21.3184 6.31169 21.8575C7.29356 22.3968 8.44322 22.5541 9.47597 22.0637C9.48437 22.0597 9.49274 22.0556 9.50108 22.0516C10.3686 21.63 10.9345 20.8511 11.2152 19.9523ZM12.6593 20.8619C12.6545 20.8667 12.6496 20.8715 12.6448 20.8763C11.9058 21.6091 11.234 22.4288 10.6658 23.3099L10.6649 23.3114C9.51515 25.0948 8.78971 27.1298 8.78971 29.2059C8.6804 34.7925 13.6021 37.2454 17.8246 35.0132C18.4955 34.6798 19.2425 34.5056 20.0009 34.5056C20.7593 34.5056 21.5063 34.6798 22.1773 35.0132C23.2256 35.5604 24.4086 35.8367 25.6065 35.8141C28.9068 35.8141 31.2122 33.0968 31.2122 29.2059C31.2122 27.1307 30.4876 25.0968 29.3392 23.3142C29.3294 23.2989 29.3195 23.2836 29.3095 23.2684C28.7591 22.4214 28.113 21.6318 27.4039 20.9224C27.3821 20.9006 27.3603 20.8789 27.3384 20.8572C25.1632 18.7022 22.41 17.0124 20.0009 17.0124C17.5903 17.0124 14.8351 18.7088 12.6593 20.8619ZM28.7832 19.9483C29.0639 20.8508 29.6318 21.6331 30.5035 22.0551C30.5104 22.0584 30.5172 22.0617 30.5241 22.0649C31.5569 22.5553 32.7065 22.3981 33.6884 21.8587C34.6698 21.3196 35.5316 20.3804 36.0819 19.1894C36.6322 17.9983 36.7904 16.7301 36.5723 15.6288C36.3546 14.5295 35.7444 13.5408 34.7149 13.0518C33.6821 12.5614 32.5325 12.7187 31.5506 13.258C30.5692 13.7971 29.7074 14.7364 29.1571 15.9273C28.6068 17.1185 28.4486 18.3866 28.6667 19.488C28.6976 19.644 28.7364 19.7978 28.7832 19.9483ZM30.6701 16.6264C31.0878 15.7224 31.7171 15.0681 32.353 14.7188C32.9913 14.3682 33.5672 14.3519 34 14.5574C34.4342 14.7636 34.7935 15.226 34.9374 15.9525C35.0805 16.6754 34.9865 17.5865 34.5689 18.4904C34.1512 19.3943 33.5219 20.0486 32.886 20.398C32.2477 20.7486 31.6718 20.7649 31.2391 20.5594C30.8048 20.3532 30.4455 19.8908 30.3016 19.1642C30.1585 18.4414 30.2525 17.5302 30.6701 16.6264ZM25.9698 5.85679C25.3674 5.75628 24.6856 5.98362 24.0585 6.60192C23.4335 7.21818 22.9227 8.17696 22.7333 9.34325C22.544 10.5095 22.7246 11.5846 23.1226 12.373C23.5221 13.1643 24.0976 13.6022 24.7007 13.7028C25.3031 13.8033 25.9849 13.576 26.612 12.9577C27.237 12.3414 27.7478 11.3826 27.9372 10.2164C28.1265 9.05012 27.9459 7.97497 27.5479 7.18664C27.1484 6.39532 26.5729 5.95743 25.9698 5.85679ZM17.2491 9.34453C17.0597 8.17824 16.5489 7.21945 15.9239 6.6032C15.2968 5.98489 14.615 5.75755 14.0126 5.85807C13.4095 5.9587 12.834 6.3966 12.4345 7.18792C12.0365 7.97625 11.8559 9.0514 12.0452 10.2176C12.2346 11.3839 12.7454 12.3427 13.3704 12.959C13.9975 13.5773 14.6793 13.8046 15.2817 13.7041C15.8848 13.6035 16.4603 13.1656 16.8598 12.3742C17.2578 11.5859 17.4384 10.5108 17.2491 9.34453ZM9.32997 16.6251C8.91229 15.7212 8.28295 15.0669 7.64704 14.7175C7.00873 14.3669 6.43284 14.3506 6.00013 14.5561C5.5659 14.7623 5.20659 15.2247 5.06272 15.9513C4.91959 16.6741 5.01357 17.5853 5.43118 18.4891C5.84886 19.3931 6.4782 20.0474 7.11411 20.3967C7.75242 20.7473 8.32831 20.7636 8.76102 20.5581C9.19525 20.3519 9.55457 19.8895 9.69843 19.163C9.84157 18.4401 9.74758 17.529 9.32997 16.6251ZM22.8884 5.41511C23.7914 4.52473 24.9851 4.00278 26.2441 4.21286C27.5016 4.42268 28.4638 5.30269 29.0357 6.4355C29.6084 7.56976 29.8221 9.00641 29.5823 10.4834C29.3425 11.9604 28.6856 13.2538 27.7821 14.1445C26.879 15.0349 25.6854 15.5568 24.4264 15.3468C23.1689 15.1369 22.2067 14.2569 21.6348 13.1241C21.0621 11.9899 20.8484 10.5532 21.0882 9.07617C21.328 7.59924 21.9849 6.30586 22.8884 5.41511ZM17.094 5.41638C17.9975 6.30713 18.6544 7.60051 18.8942 9.07744C19.134 10.5545 18.9203 11.9911 18.3476 13.1254C17.7757 14.2582 16.8135 15.1382 15.556 15.348C14.297 15.5581 13.1033 15.0362 12.2003 14.1458C11.2968 13.255 10.6399 11.9616 10.4001 10.4847C10.1603 9.00769 10.374 7.57103 10.9467 6.43678C11.5186 5.30396 12.4808 4.42396 13.7383 4.21413C14.9973 4.00405 16.191 4.526 17.094 5.41638Z" fill="white"/>
</svg>
