<svg width="32" height="32" viewBox="0 0 32 32" fill="none" xmlns="http://www.w3.org/2000/svg">
<path fill-rule="evenodd" clip-rule="evenodd" d="M15.7018 4.73737C15.8895 4.64353 16.1104 4.64353 16.2981 4.73737L30.9648 12.0707C31.2941 12.2354 31.4276 12.6358 31.2629 12.9651C31.0983 13.2945 30.6978 13.4279 30.3685 13.2633L16 6.07902L1.63146 13.2633C1.30214 13.4279 0.901691 13.2945 0.737032 12.9651C0.572373 12.6358 0.705854 12.2354 1.03517 12.0707L15.7018 4.73737ZM3.33333 14.0003C3.70152 14.0003 4 14.2988 4 14.667V26.0003H5.99998C6.36817 26.0003 6.66665 26.2988 6.66665 26.667C6.66665 27.0352 6.36817 27.3337 5.99998 27.3337H3.33333C3.15652 27.3337 2.98695 27.2634 2.86193 27.1384C2.73691 27.0134 2.66667 26.8438 2.66667 26.667V14.667C2.66667 14.2988 2.96514 14.0003 3.33333 14.0003ZM9.33332 14.667C9.33332 14.2988 9.63179 14.0003 9.99998 14.0003H16.6984C17.0666 14.0003 17.3651 14.2988 17.3651 14.667V26.667C17.3651 27.0352 17.0666 27.3337 16.6984 27.3337H9.99998C9.63179 27.3337 9.33332 27.0352 9.33332 26.667V14.667ZM10.6666 15.3337V26.0003H16.0317V15.3337H10.6666ZM23.3333 14.667C23.3333 14.2988 23.6318 14.0003 24 14.0003H28.6667C28.8436 14.0003 29.0133 14.0707 29.1383 14.1959C29.2634 14.3211 29.3335 14.4908 29.3333 14.6678L29.3194 26.6678C29.3189 27.0357 29.0206 27.3337 28.6527 27.3337H21.3333C20.9651 27.3337 20.6667 27.0352 20.6667 26.667C20.6667 26.2988 20.9651 26.0003 21.3333 26.0003H27.9868L27.9992 15.3337H24C23.6318 15.3337 23.3333 15.0352 23.3333 14.667Z" fill="#CC3333"/>
</svg>
