<svg width="40" height="40" viewBox="0 0 40 40" fill="none" xmlns="http://www.w3.org/2000/svg">
<path fill-rule="evenodd" clip-rule="evenodd" d="M19.6273 5.92147C19.8619 5.80417 20.1381 5.80417 20.3727 5.92147L38.706 15.0881C39.1176 15.294 39.2845 15.7945 39.0787 16.2062C38.8728 16.6178 38.3723 16.7847 37.9606 16.5789L20 7.59852L2.03932 16.5789C1.62767 16.7847 1.12711 16.6178 0.92129 16.2062C0.715466 15.7945 0.882318 15.294 1.29397 15.0881L19.6273 5.92147ZM4.16667 17.5002C4.6269 17.5002 5 17.8733 5 18.3335V32.5002H7.49998C7.96022 32.5002 8.33331 32.8733 8.33331 33.3335C8.33331 33.7937 7.96022 34.1668 7.49998 34.1668H4.16667C3.94565 34.1668 3.73369 34.079 3.57741 33.9228C3.42113 33.7665 3.33333 33.5545 3.33333 33.3335V18.3335C3.33333 17.8733 3.70643 17.5002 4.16667 17.5002ZM11.6666 18.3335C11.6666 17.8733 12.0397 17.5002 12.5 17.5002H20.873C21.3332 17.5002 21.7063 17.8733 21.7063 18.3335V33.3335C21.7063 33.7937 21.3332 34.1668 20.873 34.1668H12.5C12.0397 34.1668 11.6666 33.7937 11.6666 33.3335V18.3335ZM13.3333 19.1668V32.5002H20.0397V19.1668H13.3333ZM29.1667 18.3335C29.1667 17.8733 29.5398 17.5002 30 17.5002H35.8333C36.0545 17.5002 36.2666 17.5881 36.4229 17.7446C36.5792 17.9011 36.6669 18.1133 36.6667 18.3345L36.6492 33.3345C36.6487 33.7943 36.2757 34.1668 35.8159 34.1668H26.6667C26.2064 34.1668 25.8333 33.7937 25.8333 33.3335C25.8333 32.8733 26.2064 32.5002 26.6667 32.5002H34.9835L34.999 19.1668H30C29.5398 19.1668 29.1667 18.7937 29.1667 18.3335Z" fill="white"/>
</svg>
