<svg width="33" height="33" viewBox="0 0 33 33" fill="none" xmlns="http://www.w3.org/2000/svg">
<path fill-rule="evenodd" clip-rule="evenodd" d="M14.0918 9.5333C14.372 9.53603 14.6207 9.71376 14.7139 9.97805L18.0673 19.4791L19.4528 15.3224C19.5436 15.0502 19.7983 14.8666 20.0853 14.8666H23.4186C23.7868 14.8666 24.0853 15.1651 24.0853 15.5333C24.0853 15.9015 23.7868 16.1999 23.4186 16.1999H20.5658L18.7177 21.7441C18.6277 22.0143 18.3759 22.1974 18.0911 22.1999C17.8063 22.2024 17.5514 22.0237 17.4566 21.7551L14.0663 12.1492L12.7095 15.7673C12.6119 16.0276 12.3632 16.1999 12.0853 16.1999H8.75195C8.38376 16.1999 8.08529 15.9015 8.08529 15.5333C8.08529 15.1651 8.38376 14.8666 8.75195 14.8666H11.6233L13.4611 9.96585C13.5595 9.70342 13.8115 9.53057 14.0918 9.5333Z" fill="#CC3333"/>
<path fill-rule="evenodd" clip-rule="evenodd" d="M21.4327 5.53353C19.7042 5.53353 18.0455 6.24402 16.8244 7.51031L16.4906 7.85632C16.365 7.98656 16.1918 8.06013 16.0108 8.06013C15.8299 8.06013 15.6567 7.98656 15.531 7.85632L15.1972 7.51023C12.6553 4.87544 8.52266 4.87544 5.98084 7.51023C4.39392 9.15518 3.80014 11.4413 4.21148 13.5697C4.28134 13.9312 4.04492 14.2809 3.68342 14.3507C3.32192 14.4206 2.97223 14.1842 2.90237 13.8227C2.41342 11.2926 3.11572 8.55972 5.02125 6.5845C8.03922 3.45616 12.9339 3.40702 16.0109 6.43709C17.4641 5.00686 19.4046 4.2002 21.4327 4.2002C23.5294 4.2002 25.5325 5.06238 27.0003 6.5844C28.4578 8.09456 29.2704 10.1318 29.2704 12.2489C29.2704 14.3661 28.4577 16.4034 27.0003 17.9134C25.9924 18.9583 24.9886 20.0241 23.9808 21.0942C21.9392 23.262 19.8813 25.4472 17.7396 27.5097L17.736 27.5131C16.7397 28.4585 15.1612 28.4242 14.2076 27.4357L7.83086 20.8257C7.57523 20.5607 7.58281 20.1387 7.84779 19.883C8.11277 19.6274 8.53482 19.635 8.79045 19.9L15.1672 26.5099C15.6117 26.9707 16.351 26.9877 16.8167 26.5474C18.9351 24.5072 20.9523 22.365 22.9794 20.2124C23.9928 19.1363 25.0087 18.0575 26.0408 16.9876C27.2542 15.7304 27.9371 14.0266 27.9371 12.2489C27.9371 10.4713 27.2544 8.7677 26.0409 7.51032C24.8199 6.24414 23.1611 5.53353 21.4327 5.53353Z" fill="#CC3333"/>
<path fill-rule="evenodd" clip-rule="evenodd" d="M14.0918 9.5333C14.372 9.53603 14.6207 9.71376 14.7139 9.97805L18.0673 19.4791L19.4528 15.3224C19.5436 15.0502 19.7983 14.8666 20.0853 14.8666H23.4186C23.7868 14.8666 24.0853 15.1651 24.0853 15.5333C24.0853 15.9015 23.7868 16.1999 23.4186 16.1999H20.5658L18.7177 21.7441C18.6277 22.0143 18.3759 22.1974 18.0911 22.1999C17.8063 22.2024 17.5514 22.0237 17.4566 21.7551L14.0663 12.1492L12.7095 15.7673C12.6119 16.0276 12.3632 16.1999 12.0853 16.1999H8.75195C8.38376 16.1999 8.08529 15.9015 8.08529 15.5333C8.08529 15.1651 8.38376 14.8666 8.75195 14.8666H11.6233L13.4611 9.96585C13.5595 9.70342 13.8115 9.53057 14.0918 9.5333Z" fill="#CC3333"/>
</svg>
