<svg width="40" height="40" viewBox="0 0 40 40" fill="none" xmlns="http://www.w3.org/2000/svg">
<path fill-rule="evenodd" clip-rule="evenodd" d="M17.5 11.6668C17.6796 11.6562 17.8579 11.704 18.0081 11.8031C18.1583 11.9023 18.2724 12.0474 18.3333 12.2168L22.5333 24.1001L24.2 18.9001C24.254 18.7318 24.3612 18.5856 24.5055 18.4834C24.6497 18.3812 24.8232 18.3286 25 18.3334H29.1666C29.3876 18.3334 29.5996 18.4212 29.7559 18.5775C29.9122 18.7338 30 18.9458 30 19.1668C30 19.3878 29.9122 19.5997 29.7559 19.756C29.5996 19.9123 29.3876 20.0001 29.1666 20.0001H25.6L23.3333 26.9334C23.2801 27.099 23.1754 27.2432 23.0345 27.3451C22.8936 27.4471 22.7238 27.5014 22.55 27.5001C22.3787 27.5 22.2116 27.4472 22.0715 27.3488C21.9313 27.2504 21.8249 27.1112 21.7666 26.9501L17.4833 15.0001L15.8166 19.5334C15.7415 19.683 15.624 19.807 15.4787 19.89C15.3334 19.973 15.1669 20.0113 15 20.0001H10.8333C10.6123 20.0001 10.4003 19.9123 10.244 19.756C10.0878 19.5997 9.99996 19.3878 9.99996 19.1668C9.99996 18.9458 10.0878 18.7338 10.244 18.5775C10.4003 18.4212 10.6123 18.3334 10.8333 18.3334H14.4166L16.6666 12.2001C16.7325 12.0354 16.8483 11.8953 16.9977 11.7997C17.1471 11.7041 17.3228 11.6576 17.5 11.6668Z" fill="white"/>
<path fill-rule="evenodd" clip-rule="evenodd" d="M26.6666 6.66675C25.5889 6.6692 24.5228 6.8889 23.532 7.31272C22.5412 7.73654 21.646 8.35577 20.8999 9.13342L20.4832 9.56675C20.4063 9.64809 20.3131 9.71237 20.2098 9.75544C20.1064 9.7985 19.9952 9.81939 19.8832 9.81675C19.658 9.8162 19.4422 9.72628 19.2832 9.56675L18.8666 9.13342C18.1228 8.35546 17.2291 7.73628 16.2394 7.31326C15.2497 6.89024 14.1845 6.67215 13.1082 6.67215C12.0319 6.67215 10.9668 6.89024 9.97708 7.31326C8.98739 7.73628 8.09368 8.35546 7.3499 9.13342C6.4141 10.126 5.72683 11.3262 5.34442 12.6357C4.96201 13.9451 4.89535 15.3266 5.14989 16.6668C5.17408 16.7731 5.17624 16.8834 5.15625 16.9906C5.13627 17.0979 5.09455 17.1999 5.03367 17.2905C4.97278 17.381 4.89403 17.4581 4.80223 17.5171C4.71044 17.5761 4.60755 17.6157 4.49989 17.6334C4.39265 17.6553 4.28213 17.6559 4.17467 17.6351C4.0672 17.6143 3.96488 17.5725 3.87357 17.5121C3.78225 17.4518 3.70372 17.374 3.64247 17.2833C3.58121 17.1926 3.53843 17.0907 3.51656 16.9834C3.21135 15.3806 3.29253 13.7282 3.75338 12.163C4.21423 10.5979 5.04148 9.16507 6.16656 7.98342C7.04962 7.05823 8.10836 6.31849 9.28081 5.80749C10.4533 5.29648 11.7159 5.02448 12.9947 5.00741C14.2736 4.99034 15.543 5.22854 16.7287 5.70806C17.9143 6.18759 18.9924 6.8988 19.8999 7.80009C20.8076 6.89625 21.8868 6.18288 23.074 5.70185C24.2612 5.22082 25.5326 4.98182 26.8135 4.9989C28.0943 5.01598 29.3589 5.28878 30.5328 5.8013C31.7068 6.31381 32.7666 7.0557 33.6499 7.98342C35.4686 9.88993 36.4832 12.4236 36.4832 15.0584C36.4832 17.6933 35.4686 20.2269 33.6499 22.1334C32.3832 23.4501 31.1332 24.7834 29.8666 26.1168C27.3166 28.8334 24.7499 31.5667 22.0666 34.1334C21.4666 34.7016 20.6674 35.0113 19.8412 34.9957C19.015 34.9801 18.228 34.6405 17.6499 34.0501L9.68323 25.7168C9.60512 25.6393 9.54313 25.5471 9.50082 25.4456C9.45851 25.344 9.43673 25.2351 9.43673 25.1251C9.43673 25.0151 9.45851 24.9062 9.50082 24.8046C9.54313 24.7031 9.60512 24.6109 9.68323 24.5334C9.84181 24.3797 10.054 24.2937 10.2749 24.2937C10.4958 24.2937 10.708 24.3797 10.8666 24.5334L18.8332 32.8667C19.108 33.1395 19.4794 33.2926 19.8666 33.2926C20.2537 33.2926 20.6252 33.1395 20.8999 32.8667C23.5499 30.3167 26.0666 27.6334 28.5999 24.9501C29.8666 23.6001 31.1332 22.2501 32.4332 20.9168C33.9526 19.3183 34.7999 17.1972 34.7999 14.9918C34.7999 12.7864 33.9526 10.6652 32.4332 9.06675C31.6815 8.30117 30.7838 7.69427 29.7932 7.28202C28.8027 6.86976 27.7395 6.66054 26.6666 6.66675Z" fill="white"/>
</svg>
