<svg width="24" height="24" viewBox="0 0 24 24" fill="none" xmlns="http://www.w3.org/2000/svg">
<path fill-rule="evenodd" clip-rule="evenodd" d="M6.50488 6.50488C6.50488 6.22874 6.72874 6.00488 7.00488 6.00488H9.00488C9.28103 6.00488 9.50488 6.22874 9.50488 6.50488C9.50488 6.78103 9.28103 7.00488 9.00488 7.00488H7.00488C6.72874 7.00488 6.50488 6.78103 6.50488 6.50488ZM6.50488 10.5049C6.50488 10.2287 6.72874 10.0049 7.00488 10.0049H12.5049C12.781 10.0049 13.0049 10.2287 13.0049 10.5049C13.0049 10.781 12.781 11.0049 12.5049 11.0049H7.00488C6.72874 11.0049 6.50488 10.781 6.50488 10.5049ZM6.50488 14.5049C6.50488 14.2287 6.72874 14.0049 7.00488 14.0049H9.00488C9.28103 14.0049 9.50488 14.2287 9.50488 14.5049C9.50488 14.781 9.28103 15.0049 9.00488 15.0049H7.00488C6.72874 15.0049 6.50488 14.781 6.50488 14.5049Z" fill="#CC3333"/>
<path fill-rule="evenodd" clip-rule="evenodd" d="M19.5027 13.0026C19.2368 13.0026 18.9819 13.1082 18.794 13.2961L12.7745 19.3156L12.1807 21.2826L14.1966 20.7282L20.2113 14.7135C20.3993 14.5255 20.5049 14.2706 20.5049 14.0048C20.5049 13.739 20.3993 13.4841 20.2113 13.2961C20.0234 13.1082 19.7685 13.0026 19.5027 13.0026ZM18.0869 12.589C18.4624 12.2135 18.9717 12.0026 19.5027 12.0026C20.0336 12.0026 20.5429 12.2135 20.9184 12.589C21.2939 12.9645 21.5049 13.4737 21.5049 14.0048C21.5049 14.5359 21.2939 15.0451 20.9184 15.4206L14.8102 21.5288C14.7489 21.5901 14.6728 21.6344 14.5892 21.6574L11.573 22.4869C11.3975 22.5351 11.2096 22.4842 11.0825 22.3539C10.9554 22.2236 10.9091 22.0345 10.9617 21.8603L11.8535 18.9063C11.8773 18.8274 11.9203 18.7556 11.9786 18.6973L18.0869 12.589Z" fill="#CC3333"/>
<path fill-rule="evenodd" clip-rule="evenodd" d="M3.32365 1.82365C3.53087 1.61642 3.81194 1.5 4.105 1.5H15.757C16.0499 1.50026 16.3311 1.61676 16.5381 1.82391L19.6859 4.97169C19.7887 5.07441 19.8703 5.19643 19.9259 5.33075C19.9815 5.46506 20.0101 5.60903 20.01 5.7544V9.005C20.01 9.2839 19.7839 9.51 19.505 9.51C19.2261 9.51 19 9.2839 19 9.005V5.754C19 5.7415 18.9976 5.72872 18.9928 5.71718C18.988 5.70564 18.981 5.69515 18.9721 5.68631L15.8239 2.53809C15.8061 2.5203 15.7818 2.51005 15.7567 2.51H4.105C4.0798 2.51 4.05564 2.52001 4.03782 2.53782C4.02001 2.55564 4.01 2.5798 4.01 2.605V21.405C4.01 21.4302 4.02001 21.4544 4.03782 21.4722C4.05564 21.49 4.0798 21.5 4.105 21.5H7.505C7.7839 21.5 8.01 21.7261 8.01 22.005C8.01 22.2839 7.7839 22.51 7.505 22.51H4.105C3.81194 22.51 3.53088 22.3936 3.32365 22.1864C3.11642 21.9791 3 21.6981 3 21.405V2.605C3 2.31194 3.11642 2.03087 3.32365 1.82365Z" fill="#CC3333"/>
<path fill-rule="evenodd" clip-rule="evenodd" d="M15.505 1.5C15.7839 1.5 16.01 1.7261 16.01 2.005V5.405C16.01 5.4302 16.02 5.45436 16.0378 5.47218C16.0556 5.48999 16.0798 5.5 16.105 5.5H19.505C19.7839 5.5 20.01 5.7261 20.01 6.005C20.01 6.2839 19.7839 6.51 19.505 6.51H16.105C15.8119 6.51 15.5309 6.39358 15.3236 6.18635C15.1164 5.97913 15 5.69806 15 5.405V2.005C15 1.7261 15.2261 1.5 15.505 1.5Z" fill="#CC3333"/>
</svg>
