<svg width="160" height="48" viewBox="0 0 160 48" fill="none" xmlns="http://www.w3.org/2000/svg">
<rect width="160" height="48" rx="8" fill="#1A1A1A"/>
<path d="M33.1211 23.8998C33.1355 22.7939 33.4319 21.7095 33.9828 20.7476C34.5337 19.7857 35.3212 18.9776 36.272 18.3983C35.668 17.5435 34.8711 16.84 33.9448 16.3437C33.0184 15.8474 31.988 15.572 30.9355 15.5394C28.6902 15.3058 26.5135 16.8708 25.3694 16.8708C24.2031 16.8708 22.4415 15.5626 20.5445 15.6013C19.3175 15.6405 18.1217 15.9941 17.0736 16.6275C16.0255 17.261 15.1609 18.1526 14.5639 19.2157C11.978 23.6523 13.9068 30.1727 16.3839 33.759C17.6233 35.5151 19.0717 37.4767 20.9669 37.4071C22.8215 37.3309 23.5142 36.2352 25.7529 36.2352C27.9707 36.2352 28.6206 37.4071 30.5543 37.3629C32.5444 37.3309 33.7982 35.599 34.9941 33.8263C35.8845 32.575 36.5697 31.1921 37.0243 29.7287C35.8681 29.2441 34.8815 28.433 34.1874 27.3964C33.4933 26.3599 33.1224 25.1438 33.1211 23.8998Z" fill="white"/>
<path d="M29.4659 13.1798C30.551 11.8889 31.0855 10.2298 30.9561 8.55469C29.2983 8.72723 27.767 9.51237 26.6673 10.7537C26.1296 11.3601 25.7178 12.0656 25.4554 12.8298C25.193 13.594 25.0852 14.402 25.1381 15.2075C25.9673 15.216 26.7876 15.0379 27.5372 14.6866C28.2869 14.3354 28.9463 13.8202 29.4659 13.1798Z" fill="white"/>
<path d="M56.5685 32.9597H50.2396L48.7197 37.407H46.0391L52.0337 20.9531H54.8188L60.8135 37.407H58.0871L56.5685 32.9597ZM50.8951 30.9075H55.9118L53.4387 23.6898H53.3695L50.8951 30.9075Z" fill="white"/>
<path d="M73.7624 31.4116C73.7624 35.1395 71.749 37.5346 68.7105 37.5346C67.9408 37.5745 67.1754 37.3988 66.5018 37.0276C65.8281 36.6564 65.2736 36.1047 64.9017 35.4358H64.8442V41.3776H62.3594V25.4129H64.7646V27.4081H64.8103C65.1993 26.7424 65.7632 26.1936 66.4419 25.8201C67.1207 25.4467 67.8889 25.2626 68.6648 25.2874C71.7372 25.2874 73.7624 27.6941 73.7624 31.4116ZM71.2084 31.4116C71.2084 28.9829 69.9418 27.3862 68.0093 27.3862C66.1108 27.3862 64.8338 29.0165 64.8338 31.4116C64.8338 33.8287 66.1108 35.4474 68.0093 35.4474C69.9418 35.4474 71.2084 33.8624 71.2084 31.4116Z" fill="white"/>
<path d="M87.0827 31.4116C87.0827 35.1395 85.0693 37.5346 82.0308 37.5346C81.2611 37.5745 80.4957 37.3988 79.8221 37.0276C79.1485 36.6564 78.5939 36.1047 78.222 35.4358H78.1645V41.3776H75.6797V25.4129H78.0848V27.4081H78.1305C78.5196 26.7424 79.0835 26.1936 79.7622 25.8201C80.441 25.4467 81.2092 25.2626 81.9851 25.2874C85.0575 25.2874 87.0827 27.6941 87.0827 31.4116ZM84.5287 31.4116C84.5287 28.9829 83.2621 27.3861 81.3297 27.3861C79.4311 27.3861 78.1541 29.0165 78.1541 31.4116C78.1541 33.8287 79.4311 35.4474 81.3297 35.4474C83.2622 35.4474 84.5287 33.8623 84.5287 31.4116H84.5287Z" fill="white"/>
<path d="M95.8874 32.8234C96.0715 34.4551 97.671 35.5264 99.8568 35.5264C101.951 35.5264 103.458 34.455 103.458 32.9838C103.458 31.7067 102.549 30.942 100.397 30.4179L98.2455 29.9042C95.1966 29.1744 93.7812 27.7615 93.7812 25.4686C93.7812 22.6297 96.2778 20.6797 99.8229 20.6797C103.331 20.6797 105.737 22.6297 105.818 25.4686H103.309C103.159 23.8266 101.789 22.8354 99.7876 22.8354C97.7859 22.8354 96.4162 23.8382 96.4162 25.2978C96.4162 26.461 97.291 27.1455 99.4311 27.6695L101.26 28.1147C104.667 28.913 106.083 30.2691 106.083 32.6758C106.083 35.7541 103.608 37.6821 99.6727 37.6821C95.9905 37.6821 93.5044 35.7994 93.3438 32.8233L95.8874 32.8234Z" fill="white"/>
<path d="M111.452 22.5703V25.4092H113.754V27.3592H111.452V33.9726C111.452 34.9999 111.913 35.4787 112.925 35.4787C113.198 35.474 113.471 35.455 113.742 35.4217V37.3601C113.287 37.4443 112.825 37.4825 112.362 37.4739C109.911 37.4739 108.955 36.5617 108.955 34.2352V27.3592H107.195V25.4092H108.955V22.5703H111.452Z" fill="white"/>
<path d="M115.078 31.4119C115.078 27.6374 117.321 25.2656 120.819 25.2656C124.329 25.2656 126.562 27.6374 126.562 31.4119C126.562 35.1967 124.341 37.5581 120.819 37.5581C117.299 37.5581 115.078 35.1966 115.078 31.4119ZM124.03 31.4119C124.03 28.8227 122.833 27.2945 120.819 27.2945C118.806 27.2945 117.61 28.8343 117.61 31.4119C117.61 34.0114 118.806 35.5279 120.819 35.5279C122.833 35.5279 124.03 34.0114 124.03 31.4119H124.03Z" fill="white"/>
<path d="M128.617 25.4128H130.987V27.4546H131.045C131.205 26.8169 131.582 26.2533 132.112 25.8586C132.642 25.4639 133.294 25.2622 133.956 25.2872C134.243 25.2863 134.528 25.3171 134.808 25.3791V27.6823C134.446 27.5729 134.069 27.5226 133.691 27.5335C133.33 27.519 132.97 27.5821 132.636 27.7184C132.302 27.8547 132.002 28.0611 131.756 28.3233C131.51 28.5855 131.324 28.8974 131.211 29.2374C131.098 29.5775 131.061 29.9378 131.102 30.2935V37.4089H128.617L128.617 25.4128Z" fill="white"/>
<path d="M146.256 33.8859C145.922 36.0636 143.781 37.5581 141.043 37.5581C137.522 37.5581 135.336 35.2199 135.336 31.4688C135.336 27.706 137.533 25.2656 140.939 25.2656C144.288 25.2656 146.394 27.5456 146.394 31.1828V32.0265H137.844V32.1753C137.805 32.6168 137.861 33.0615 138.008 33.48C138.155 33.8985 138.391 34.2812 138.699 34.6025C139.007 34.9239 139.38 35.1767 139.794 35.344C140.208 35.5114 140.654 35.5895 141.101 35.5732C141.688 35.6277 142.277 35.4929 142.781 35.1889C143.285 34.8849 143.676 34.4279 143.896 33.8859L146.256 33.8859ZM137.856 30.3055H143.908C143.93 29.9086 143.87 29.5113 143.73 29.1387C143.59 28.7661 143.374 28.4262 143.095 28.1403C142.816 27.8544 142.481 27.6287 142.11 27.4774C141.739 27.3261 141.34 27.2523 140.939 27.2609C140.534 27.2585 140.133 27.3355 139.759 27.4876C139.384 27.6396 139.044 27.8636 138.757 28.1467C138.471 28.4297 138.243 28.7663 138.089 29.1368C137.934 29.5073 137.855 29.9046 137.856 30.3056V30.3055Z" fill="white"/>
<path d="M50.5771 8.56757C51.098 8.53052 51.6208 8.60851 52.1076 8.79591C52.5945 8.98331 53.0333 9.27544 53.3924 9.65125C53.7515 10.027 54.022 10.4771 54.1843 10.9691C54.3466 11.461 54.3968 11.9825 54.3311 12.496C54.3311 15.0218 52.9535 16.4736 50.5771 16.4736H47.6953V8.56757H50.5771ZM48.9344 15.3555H50.4387C50.8109 15.3776 51.1834 15.3171 51.5291 15.1785C51.8748 15.0399 52.185 14.8266 52.437 14.5542C52.689 14.2819 52.8766 13.9572 52.986 13.604C53.0955 13.2507 53.1241 12.8777 53.0697 12.5121C53.1201 12.1479 53.0886 11.7772 52.9775 11.4266C52.8664 11.0759 52.6783 10.7539 52.4269 10.4837C52.1754 10.2135 51.8668 10.0017 51.523 9.86363C51.1793 9.72551 50.809 9.66445 50.4387 9.68482H48.9344V15.3555Z" fill="white"/>
<path d="M61.1189 14.8613C60.9575 15.4066 60.6077 15.8783 60.1308 16.1938C59.6538 16.5094 59.0801 16.6487 58.51 16.5874C58.1134 16.5978 57.7192 16.5225 57.3548 16.3668C56.9905 16.2111 56.6647 15.9786 56.4 15.6856C56.1354 15.3926 55.9383 15.0461 55.8224 14.67C55.7065 14.2939 55.6746 13.8974 55.7288 13.5078C55.676 13.1171 55.7085 12.7197 55.8241 12.3425C55.9398 11.9653 56.1358 11.6172 56.3991 11.3216C56.6623 11.026 56.9865 10.7899 57.3498 10.6293C57.7131 10.4687 58.107 10.3874 58.5048 10.3907C60.1801 10.3907 61.1907 11.5249 61.1907 13.3985V13.8094H56.9393V13.8753C56.9207 14.0943 56.9484 14.3147 57.0208 14.5224C57.0932 14.7301 57.2086 14.9205 57.3595 15.0814C57.5105 15.2423 57.6937 15.3702 57.8975 15.4569C58.1012 15.5435 58.321 15.587 58.5427 15.5846C58.827 15.6184 59.1149 15.5677 59.37 15.4389C59.625 15.3101 59.8357 15.109 59.9751 14.8613L61.1189 14.8613ZM56.9392 12.9385H59.9803C59.9952 12.7383 59.9678 12.5371 59.8996 12.348C59.8315 12.1589 59.7242 11.986 59.5846 11.8405C59.4451 11.6949 59.2763 11.5799 59.0892 11.5028C58.9021 11.4257 58.7008 11.3883 58.4982 11.3929C58.2927 11.3904 58.0888 11.4286 57.8984 11.5054C57.7081 11.5822 57.5352 11.6959 57.3899 11.84C57.2446 11.984 57.1299 12.1554 57.0525 12.3441C56.9751 12.5328 56.9366 12.7349 56.9393 12.9385H56.9392Z" fill="white"/>
<path d="M64.994 10.3906C66.348 10.3906 67.2333 11.015 67.3495 12.0669H66.2096C66.1 11.6289 65.6677 11.3494 64.994 11.3494C64.3306 11.3494 63.8267 11.6613 63.8267 12.1271C63.8267 12.4835 64.1309 12.7081 64.7838 12.8562L65.7839 13.0859C66.9291 13.3492 67.4657 13.837 67.4657 14.7137C67.4657 15.8369 66.4094 16.5873 64.9718 16.5873C63.5394 16.5873 62.6058 15.9462 62.5 14.889H63.6895C63.792 15.1406 63.9769 15.3508 64.2144 15.4859C64.4519 15.6209 64.7283 15.673 64.9992 15.6337C65.7395 15.6337 66.2658 15.3051 66.2658 14.8282C66.2658 14.4724 65.9837 14.242 65.3805 14.0997L64.3306 13.8584C63.1855 13.5899 62.6554 13.0807 62.6554 12.1931C62.6554 11.1353 63.6334 10.3906 64.994 10.3906Z" fill="white"/>
<path d="M73.002 12.4578C72.9262 12.1485 72.7412 11.8762 72.4803 11.6903C72.2195 11.5045 71.9001 11.4173 71.58 11.4447C70.5851 11.4447 69.9766 12.2003 69.9766 13.4716C69.9766 14.7649 70.5903 15.5374 71.58 15.5374C71.897 15.5738 72.2164 15.4942 72.4783 15.3136C72.7401 15.133 72.9264 14.8638 73.002 14.5566H74.1576C74.0811 15.1608 73.7696 15.7114 73.2893 16.0912C72.809 16.4709 72.198 16.6497 71.5866 16.5894C71.184 16.602 70.7835 16.5273 70.4131 16.3705C70.0427 16.2137 69.7114 15.9786 69.4422 15.6816C69.1731 15.3847 68.9727 15.033 68.855 14.6513C68.7373 14.2696 68.7052 13.867 68.761 13.4717C68.708 13.0793 68.7422 12.6802 68.861 12.3022C68.9798 11.9243 69.1804 11.5766 69.4489 11.2834C69.7173 10.9902 70.0471 10.7586 70.4152 10.6048C70.7833 10.4509 71.1808 10.3786 71.5801 10.3927C72.1965 10.3365 72.8107 10.5208 73.2921 10.9065C73.7735 11.2922 74.084 11.8488 74.1576 12.4579L73.002 12.4578Z" fill="white"/>
<path d="M75.3359 14.7863C75.3359 13.7124 76.1429 13.0932 77.5753 13.0052L79.2061 12.9121V12.3971C79.2061 11.7669 78.7857 11.4111 77.9735 11.4111C77.3102 11.4111 76.8506 11.6524 76.7187 12.0742H75.5684C75.6898 11.0494 76.6626 10.3921 78.0284 10.3921C79.5378 10.3921 80.3892 11.1368 80.3892 12.3971V16.4737H79.2453V15.6352H79.1513C78.9605 15.9359 78.6925 16.1811 78.3748 16.3457C78.0571 16.5103 77.701 16.5884 77.3429 16.572C77.0901 16.598 76.8347 16.5713 76.593 16.4935C76.3513 16.4157 76.1287 16.2886 75.9396 16.1204C75.7505 15.9522 75.5991 15.7465 75.4951 15.5168C75.3912 15.287 75.3369 15.0382 75.3359 14.7863ZM79.2061 14.2765V13.7777L77.7359 13.8709C76.9067 13.9259 76.5307 14.2054 76.5307 14.7313C76.5307 15.2683 77.0007 15.5808 77.6471 15.5808C77.8365 15.5998 78.0278 15.5809 78.2097 15.5251C78.3915 15.4693 78.5602 15.3779 78.7057 15.2562C78.8511 15.1345 78.9704 14.9851 79.0564 14.8168C79.1423 14.6485 79.1933 14.4647 79.2061 14.2765ZM77.3154 9.50963L78.7034 7.625H80.0967L78.5428 9.50963H77.3154Z" fill="white"/>
<path d="M82.25 10.5089H83.3938V11.4237H83.4826C83.6107 11.1061 83.837 10.837 84.1291 10.6548C84.4211 10.4727 84.7639 10.3869 85.1083 10.4099C85.2862 10.4075 85.464 10.424 85.6384 10.4591V11.6211C85.4203 11.5749 85.1981 11.5511 84.9751 11.5499C84.7791 11.5325 84.5816 11.5559 84.3953 11.6186C84.209 11.6813 84.038 11.7819 83.8932 11.914C83.7485 12.0461 83.6332 12.2067 83.5549 12.3856C83.4765 12.5645 83.4368 12.7576 83.4382 12.9526V16.4753H82.25L82.25 10.5089Z" fill="white"/>
<path d="M86.7298 17.07H87.9461C88.0467 17.5029 88.5494 17.7823 89.3511 17.7823C90.3408 17.7823 90.9271 17.3165 90.9271 16.5279V15.3827H90.8383C90.652 15.7033 90.3798 15.9665 90.0519 16.1434C89.724 16.3202 89.3531 16.4038 88.9803 16.3849C87.4434 16.3849 86.4922 15.2074 86.4922 13.4211C86.4922 11.6019 87.4539 10.4075 88.992 10.4075C89.3742 10.3943 89.7527 10.4855 90.0861 10.671C90.4196 10.8565 90.6951 11.1293 90.8827 11.4595H90.9767V10.5065H92.1153V16.522C92.1153 17.8865 91.0368 18.7521 89.3341 18.7521C87.8299 18.7522 86.8565 18.0838 86.7298 17.07ZM90.9493 13.4153C90.9493 12.2268 90.3291 11.4653 89.3171 11.4653C88.2947 11.4653 87.7202 12.2268 87.7202 13.4153C87.7202 14.6044 88.2947 15.3659 89.3171 15.3659C90.3356 15.3659 90.9493 14.6102 90.9493 13.4153H90.9493Z" fill="white"/>
<path d="M93.6641 14.7849C93.6641 13.7109 94.471 13.0917 95.9034 13.0037L97.5343 12.9106V12.3956C97.5343 11.7654 97.1138 11.4096 96.3017 11.4096C95.6384 11.4096 95.1787 11.6509 95.0468 12.0728H93.8965C94.0179 11.0479 94.9907 10.3906 96.3565 10.3906C97.8659 10.3906 98.7173 11.1353 98.7173 12.3956V16.4722H97.5735V15.6337H97.4794C97.2886 15.9345 97.0207 16.1796 96.7029 16.3442C96.3852 16.5088 96.0291 16.5869 95.671 16.5705C95.4182 16.5965 95.1628 16.5698 94.9211 16.492C94.6794 16.4142 94.4568 16.2871 94.2678 16.1189C94.0787 15.9507 93.9272 15.745 93.8233 15.5153C93.7193 15.2855 93.6651 15.0367 93.6641 14.7849ZM97.5343 14.275V13.7762L96.064 13.8694C95.2349 13.9244 94.8588 14.2039 94.8588 14.7299C94.8588 15.2668 95.3289 15.5793 95.9753 15.5793C96.1647 15.5983 96.356 15.5794 96.5378 15.5236C96.7197 15.4678 96.8883 15.3764 97.0338 15.2547C97.1792 15.133 97.2985 14.9836 97.3845 14.8153C97.4705 14.647 97.5214 14.4632 97.5343 14.275Z" fill="white"/>
<path d="M100.633 8.17969H101.821V16.4752H100.633V8.17969Z" fill="white"/>
<path d="M103.474 13.4863C103.437 13.0942 103.482 12.6986 103.607 12.3249C103.733 11.9511 103.936 11.6075 104.203 11.316C104.47 11.0246 104.796 10.7917 105.16 10.6323C105.523 10.4729 105.916 10.3906 106.314 10.3906C106.711 10.3906 107.104 10.4729 107.468 10.6323C107.831 10.7917 108.157 11.0246 108.424 11.316C108.692 11.6075 108.895 11.9511 109.02 12.3249C109.146 12.6986 109.191 13.0942 109.153 13.4863C109.192 13.8788 109.147 14.275 109.022 14.6493C108.897 15.0237 108.694 15.3679 108.426 15.66C108.159 15.952 107.833 16.1854 107.469 16.3451C107.105 16.5048 106.712 16.5873 106.314 16.5873C105.916 16.5873 105.522 16.5048 105.158 16.3451C104.795 16.1854 104.468 15.952 104.201 15.66C103.934 15.3679 103.731 15.0237 103.606 14.6493C103.481 14.275 103.436 13.8788 103.474 13.4863ZM107.931 13.4863C107.931 12.193 107.345 11.4367 106.316 11.4367C105.283 11.4367 104.702 12.193 104.702 13.4863C104.702 14.79 105.283 15.5405 106.316 15.5405C107.345 15.5405 107.931 14.7848 107.931 13.4863H107.931Z" fill="white"/>
<path d="M119.111 14.8613C118.95 15.4066 118.6 15.8783 118.123 16.1938C117.646 16.5094 117.072 16.6487 116.502 16.5874C116.106 16.5978 115.711 16.5225 115.347 16.3668C114.983 16.2111 114.657 15.9786 114.392 15.6856C114.128 15.3926 113.931 15.0461 113.815 14.67C113.699 14.2939 113.667 13.8974 113.721 13.5078C113.668 13.1171 113.701 12.7197 113.816 12.3425C113.932 11.9653 114.128 11.6172 114.391 11.3216C114.654 11.026 114.979 10.7899 115.342 10.6293C115.705 10.4687 116.099 10.3874 116.497 10.3907C118.172 10.3907 119.183 11.5249 119.183 13.3985V13.8094H114.931V13.8753C114.913 14.0943 114.941 14.3147 115.013 14.5224C115.085 14.7301 115.201 14.9205 115.352 15.0814C115.503 15.2423 115.686 15.3702 115.89 15.4569C116.093 15.5435 116.313 15.587 116.535 15.5846C116.819 15.6184 117.107 15.5677 117.362 15.4389C117.617 15.3101 117.828 15.109 117.967 14.8613L119.111 14.8613ZM114.931 12.9385H117.972C117.987 12.7383 117.96 12.5371 117.892 12.348C117.824 12.1589 117.716 11.986 117.577 11.8405C117.437 11.6949 117.268 11.5799 117.081 11.5028C116.894 11.4257 116.693 11.3883 116.49 11.3929C116.285 11.3903 116.081 11.4286 115.891 11.5054C115.7 11.5821 115.527 11.6959 115.382 11.84C115.237 11.984 115.122 12.1554 115.045 12.3441C114.967 12.5328 114.929 12.7349 114.931 12.9385H114.931Z" fill="white"/>
<path d="M120.766 10.5078H121.909V11.4556H121.998C122.149 11.1152 122.403 10.8298 122.725 10.6392C123.047 10.4487 123.421 10.3625 123.795 10.3926C124.088 10.3708 124.382 10.4145 124.656 10.5207C124.929 10.6268 125.175 10.7926 125.375 11.0057C125.575 11.2188 125.725 11.4738 125.812 11.7518C125.899 12.0298 125.922 12.3237 125.879 12.6117V16.4741H124.691V12.9074C124.691 11.9486 124.27 11.4718 123.391 11.4718C123.193 11.4626 122.994 11.4961 122.809 11.5701C122.625 11.6441 122.459 11.7567 122.322 11.9003C122.185 12.0439 122.082 12.2151 122.018 12.4021C121.955 12.5891 121.933 12.7875 121.954 12.9837V16.4741H120.766V10.5078Z" fill="white"/>
<path d="M136.088 14.8613C135.926 15.4066 135.576 15.8783 135.1 16.1938C134.623 16.5094 134.049 16.6487 133.479 16.5874C133.082 16.5978 132.688 16.5225 132.324 16.3668C131.959 16.2111 131.633 15.9786 131.369 15.6856C131.104 15.3926 130.907 15.0461 130.791 14.67C130.675 14.2939 130.643 13.8974 130.698 13.5078C130.645 13.1171 130.677 12.7197 130.793 12.3425C130.909 11.9653 131.105 11.6172 131.368 11.3216C131.631 11.026 131.955 10.7899 132.319 10.6293C132.682 10.4687 133.076 10.3874 133.474 10.3907C135.149 10.3907 136.159 11.5249 136.159 13.3985V13.8094H131.908V13.8753C131.889 14.0943 131.917 14.3147 131.989 14.5224C132.062 14.7301 132.177 14.9205 132.328 15.0814C132.479 15.2423 132.662 15.3702 132.866 15.4569C133.07 15.5435 133.29 15.587 133.511 15.5846C133.796 15.6184 134.084 15.5677 134.339 15.4389C134.594 15.3101 134.804 15.109 134.944 14.8613L136.088 14.8613ZM131.908 12.9385H134.949C134.964 12.7383 134.937 12.5371 134.868 12.348C134.8 12.1589 134.693 11.986 134.553 11.8405C134.414 11.6949 134.245 11.5799 134.058 11.5028C133.871 11.4257 133.67 11.3883 133.467 11.3929C133.261 11.3903 133.058 11.4286 132.867 11.5054C132.677 11.5821 132.504 11.6959 132.359 11.8399C132.213 11.984 132.099 12.1554 132.021 12.3441C131.944 12.5327 131.905 12.7349 131.908 12.9385H131.908Z" fill="white"/>
<path d="M137.805 8.17969H138.993V16.4752H137.805V8.17969Z" fill="white"/>
<rect x="0.5" y="0.5" width="159" height="47" rx="7.5" stroke="white" stroke-opacity="0.7"/>
</svg>
