<svg width="24" height="24" viewBox="0 0 24 24" fill="none" xmlns="http://www.w3.org/2000/svg">
<path fill-rule="evenodd" clip-rule="evenodd" d="M15.8665 3.32244C13.9953 2.48866 11.9046 2.2821 9.90638 2.73358C7.90815 3.18505 6.10939 4.27037 4.77837 5.82766C3.44735 7.38495 2.65539 9.33077 2.52059 11.3749C2.3858 13.4191 2.9154 15.4521 4.03041 17.1707C5.14542 18.8892 6.7861 20.2013 8.70775 20.9113C10.6294 21.6212 12.7291 21.691 14.6936 21.1101C16.6581 20.5293 18.3823 19.329 19.6089 17.6882C20.8355 16.0474 21.4988 14.054 21.5 12.0054V11.0857C21.5 10.8096 21.7239 10.5857 22 10.5857C22.2761 10.5857 22.5 10.8096 22.5 11.0857V12.0057C22.4987 14.27 21.7655 16.4734 20.4098 18.2869C19.0541 20.1004 17.1484 21.4271 14.9771 22.0691C12.8058 22.7111 10.4851 22.634 8.36119 21.8493C6.23727 21.0646 4.42389 19.6144 3.19151 17.7149C1.95913 15.8154 1.37378 13.5685 1.52276 11.3091C1.67174 9.0498 2.54707 6.89915 4.01819 5.17794C5.48932 3.45672 7.47742 2.25716 9.686 1.75816C11.8946 1.25917 14.2053 1.48746 16.2735 2.40901C16.5257 2.5214 16.6391 2.81699 16.5267 3.06922C16.4143 3.32146 16.1187 3.43483 15.8665 3.32244ZM22.3534 3.65199C22.5487 3.84716 22.5489 4.16374 22.3537 4.3591L12.3537 14.3691C12.26 14.4629 12.1328 14.5157 12.0001 14.5157C11.8675 14.5158 11.7403 14.4631 11.6465 14.3693L8.64645 11.3693C8.45119 11.174 8.45119 10.8574 8.64645 10.6622C8.84171 10.4669 9.1583 10.4669 9.35356 10.6622L11.9998 13.3084L21.6463 3.65235C21.8414 3.45699 22.158 3.45683 22.3534 3.65199Z" fill="white"/>
</svg>
