<svg width="24" height="25" viewBox="0 0 24 25" fill="none" xmlns="http://www.w3.org/2000/svg">
<path fill-rule="evenodd" clip-rule="evenodd" d="M5.64645 6.55367C5.84171 6.35841 6.15829 6.35841 6.35355 6.55367L12 12.2001L17.6464 6.55367C17.8417 6.35841 18.1583 6.35841 18.3536 6.55367C18.5488 6.74894 18.5488 7.06552 18.3536 7.26078L12.7071 12.9072L18.3536 18.5537C18.5488 18.7489 18.5488 19.0655 18.3536 19.2608C18.1583 19.456 17.8417 19.456 17.6464 19.2608L12 13.6143L6.35355 19.2608C6.15829 19.456 5.84171 19.456 5.64645 19.2608C5.45118 19.0655 5.45118 18.7489 5.64645 18.5537L11.2929 12.9072L5.64645 7.26078C5.45118 7.06552 5.45118 6.74894 5.64645 6.55367Z" fill="white"/>
</svg>
