<svg width="24" height="24" viewBox="0 0 24 24" fill="none" xmlns="http://www.w3.org/2000/svg">
<path d="M19.988 22.5C19.8876 22.5 19.7871 22.5 19.7871 22.5C16.6722 22.1986 13.5574 21.0933 10.8445 19.3852C8.33254 17.7775 6.22249 15.6675 4.71531 13.1555C2.9067 10.5431 1.90191 7.42823 1.5 4.21292C1.5 3.61005 1.70096 2.9067 2.10287 2.40431C2.50479 1.90191 3.10765 1.60048 3.811 1.5C3.91148 1.5 3.91148 1.5 4.01196 1.5H7.02632C8.23206 1.5 9.33732 2.40431 9.53828 3.71053C9.63876 4.61483 9.83971 5.51914 10.2416 6.42345C10.5431 7.32775 10.3421 8.33254 9.63876 9.03589L8.63397 10.0407C9.94019 12.2512 11.7488 14.0598 13.9593 15.366L14.9641 14.3612C15.6675 13.6579 16.6722 13.4569 17.5766 13.7584C18.4809 14.0598 19.3852 14.3612 20.2895 14.4617C21.5957 14.6627 22.5 15.7679 22.5 16.9737V19.988C22.5 20.6914 22.1986 21.2943 21.7966 21.7967C21.2943 22.299 20.6914 22.5 19.988 22.5ZM7.02632 2.50478H4.01196H3.91148C3.50957 2.50478 3.10766 2.70574 2.9067 3.00718C2.60526 3.30861 2.50478 3.71053 2.50478 4.11244C2.80622 7.12679 3.91148 10.0407 5.51914 12.5526C7.02632 14.8636 9.03588 16.9737 11.3469 18.4809C13.8589 20.0885 16.7727 21.1938 19.7871 21.4952H19.8876C20.2895 21.4952 20.6914 21.2943 20.9928 21.0933C21.2943 20.7919 21.3947 20.39 21.3947 19.988V16.9737C21.3947 16.1699 20.8923 15.567 20.0885 15.4665C19.0837 15.366 18.0789 15.0646 17.1746 14.7632C16.6722 14.5622 15.9689 14.6627 15.567 15.0646L14.2608 16.3708C14.0598 16.5718 13.8589 16.5718 13.6579 16.4713C11.0455 14.9641 8.93541 12.8541 7.42823 10.2416C7.42823 10.0407 7.52871 9.73923 7.62919 9.63876L8.93541 8.33254C9.33732 7.93062 9.4378 7.32775 9.23684 6.72488C8.93541 5.82057 8.63397 4.81579 8.53349 3.81101C8.43301 3.10766 7.83014 2.50478 7.02632 2.50478Z" fill="#494AD0"/>
</svg>
