<svg width="24" height="24" viewBox="0 0 24 24" fill="none" xmlns="http://www.w3.org/2000/svg">
<g clip-path="url(#clip0_1_171)">
<path fill-rule="evenodd" clip-rule="evenodd" d="M23.3028 10.4393C24.0192 11.1306 24.1525 12.0989 23.842 13.1148C23.8346 13.1391 23.8272 13.1632 23.82 13.187C23.4558 14.379 23.2649 15.0039 22.6436 15.6816C22.3129 16.0423 21.971 16.2336 21.6974 16.3331C21.5618 16.3824 21.445 16.4084 21.3569 16.4222C21.3128 16.429 21.2758 16.4328 21.2471 16.4349C21.2327 16.436 21.2203 16.4366 21.2102 16.437L21.1966 16.4373L21.191 16.4374L21.1886 16.4374L21.1874 16.4374C21.1874 16.4374 21.1863 16.4374 21.1863 15.9374V16.4374H20.4999C20.2238 16.4374 19.9999 16.2136 19.9999 15.9374C19.9999 15.6613 20.2238 15.4374 20.4999 15.4374H21.1765C21.1809 15.437 21.1899 15.4361 21.2029 15.4341C21.2339 15.4293 21.2872 15.4182 21.3557 15.3933C21.4904 15.3443 21.6929 15.2388 21.9066 15.0058C22.3616 14.5095 22.4945 14.1024 22.8857 12.8225C23.1196 12.0571 22.9807 11.5182 22.6084 11.1589C22.203 10.7678 21.4111 10.4778 20.106 10.4998L20.0976 10.5L12.4763 10.4999C12.2001 10.4999 11.9763 10.2761 11.9763 9.99991C11.9763 9.72377 12.2001 9.49991 12.4763 9.49991H20.0934C21.5082 9.4767 22.6201 9.78057 23.3028 10.4393Z" fill="#CC3333"/>
<path fill-rule="evenodd" clip-rule="evenodd" d="M8.48496 6C8.48815 6 8.49133 6 8.49449 6H11.5188C12.76 6 13.9695 6.40098 14.9945 7.14631L17.4252 8.91371C17.43 8.91726 17.4349 8.9209 17.4396 8.92463L17.4426 8.92689C17.4467 8.92998 17.4539 8.93534 17.4639 8.94265C17.4841 8.95728 17.5158 8.9796 17.5575 9.00707C17.6413 9.06224 17.7636 9.13687 17.9135 9.21151C18.2197 9.36407 18.6074 9.5 18.9999 9.5C19.276 9.5 19.4999 9.72386 19.4999 10C19.4999 10.2761 19.276 10.5 18.9999 10.5C18.3923 10.5 17.8457 10.295 17.4675 10.1066C17.2752 10.0108 17.1179 9.91492 17.0075 9.84223C16.9521 9.80577 16.9081 9.77481 16.8768 9.75215C16.8612 9.74082 16.8487 9.73152 16.8396 9.72463L16.8318 9.71865L14.4064 7.95511C13.547 7.33021 12.5423 7 11.5188 7H8.49987C8.09239 7 7.53365 7.00117 6.84163 7.22561C6.15143 7.44946 5.3018 7.90518 4.35343 8.85355L4 8.50012C4.35343 8.85355 4.35343 8.85355 4.35343 8.85355L4.35271 8.85427L4.35195 8.85502L4.35029 8.85667L4.34638 8.86048L4.33623 8.87016C4.32841 8.87751 4.31846 8.88662 4.30627 8.89738C4.28188 8.9189 4.24854 8.94697 4.20528 8.98061C4.11874 9.04793 3.99272 9.13739 3.81962 9.24125C3.47333 9.44902 2.93983 9.73943 2.15812 10C1.43268 10.2418 1.20712 10.444 1.11625 10.5954C1.01426 10.7654 1.00001 10.984 1.00001 11.5257C1.00001 11.8477 1.14586 12.5322 1.35786 13.3209C1.5631 14.0844 1.81007 14.8747 1.97435 15.3675C2.06167 15.6295 1.92009 15.9127 1.65812 16C1.39615 16.0873 1.11299 15.9457 1.02566 15.6838C0.856605 15.1766 0.603573 14.367 0.392147 13.5805C0.18748 12.8191 5.34415e-06 12.0036 5.34415e-06 11.5257C5.34415e-06 11.5041 -2.60675e-05 11.4825 -5.77176e-05 11.4606C-0.000699898 11.0176 -0.00142887 10.5146 0.258759 10.0809C0.542886 9.60736 1.06733 9.30951 1.84189 9.05132C2.56018 8.81189 3.02642 8.55098 3.30513 8.38375C3.44452 8.30011 3.53726 8.23332 3.59134 8.19126C3.6184 8.17022 3.63583 8.15532 3.64465 8.14754L3.65055 8.14222C4.70059 7.09336 5.6828 6.55017 6.53312 6.27439C7.29567 6.02707 7.93065 6.00267 8.36067 6.00026C8.3661 6.00009 8.37155 6 8.37703 6H8.48496Z" fill="#CC3333"/>
<path fill-rule="evenodd" clip-rule="evenodd" d="M8.49994 16C8.49994 15.7239 8.7238 15.5 8.99994 15.5H14.9999C15.2761 15.5 15.4999 15.7239 15.4999 16C15.4999 16.2762 15.2761 16.5 14.9999 16.5H8.99994C8.7238 16.5 8.49994 16.2762 8.49994 16Z" fill="#CC3333"/>
<path fill-rule="evenodd" clip-rule="evenodd" d="M6.24994 13.5C5.0073 13.5 3.99994 14.5074 3.99994 15.75C3.99994 16.9926 5.0073 18 6.24994 18C7.49258 18 8.49994 16.9926 8.49994 15.75C8.49994 14.5074 7.49258 13.5 6.24994 13.5ZM2.99994 15.75C2.99994 13.9551 4.45502 12.5 6.24994 12.5C8.04487 12.5 9.49994 13.9551 9.49994 15.75C9.49994 17.5449 8.04487 19 6.24994 19C4.45502 19 2.99994 17.5449 2.99994 15.75Z" fill="#CC3333"/>
<path fill-rule="evenodd" clip-rule="evenodd" d="M17.7499 13.5C16.5073 13.5 15.4999 14.5074 15.4999 15.75C15.4999 16.9926 16.5073 18 17.7499 18C18.9926 18 19.9999 16.9926 19.9999 15.75C19.9999 14.5074 18.9926 13.5 17.7499 13.5ZM14.4999 15.75C14.4999 13.9551 15.955 12.5 17.7499 12.5C19.5449 12.5 20.9999 13.9551 20.9999 15.75C20.9999 17.5449 19.5449 19 17.7499 19C15.955 19 14.4999 17.5449 14.4999 15.75Z" fill="#CC3333"/>
</g>
<defs>
<clipPath id="clip0_1_171">
<rect width="24" height="24" fill="white"/>
</clipPath>
</defs>
</svg>
