<svg width="24" height="24" viewBox="0 0 24 24" fill="none" xmlns="http://www.w3.org/2000/svg">
<g clip-path="url(#clip0_1_585)">
<path fill-rule="evenodd" clip-rule="evenodd" d="M1.00012 6C1.00012 5.72386 1.22398 5.5 1.50012 5.5H13.0001V9C13.0001 9.82843 13.6717 10.5 14.5001 10.5H20.426C20.514 10.5588 20.6053 10.6116 20.6988 10.6584L22.1709 11.3944C22.6791 11.6485 23.0001 12.1679 23.0001 12.7361V14.5585C23.0001 15.2041 22.587 15.7773 21.9745 15.9815L20.9253 16.3312C20.6214 14.9963 19.4271 14 18.0001 14C16.513 14 15.2787 15.082 15.0413 16.5017C15.0277 16.5006 15.014 16.5 15.0001 16.5H8.95864C8.7206 15.0811 7.48662 14 6.00012 14C4.34327 14 3.00012 15.3431 3.00012 17C3.00012 18.6569 4.34327 20 6.00012 20C7.48662 20 8.7206 18.9189 8.95864 17.5H15.0001C15.014 17.5 15.0277 17.4994 15.0413 17.4983C15.2787 18.918 16.513 20 18.0001 20C19.5325 20 20.7965 18.8512 20.9778 17.3678L22.2907 16.9302C23.3115 16.5899 24.0001 15.6346 24.0001 14.5585V12.7361C24.0001 11.7891 23.4651 10.9235 22.6182 10.5L21.146 9.76393C20.9341 9.65799 20.7596 9.51133 20.6391 9.33437C20.2128 8.70813 19.8517 8.03622 19.4798 7.33706C18.493 5.48212 16.5441 4.5 14.5001 4.5H1.50012C0.671695 4.5 0.00012207 5.17157 0.00012207 6V12V15.1972C0.00012207 15.4934 0.0877791 15.7829 0.252047 16.0293L1.0841 17.2774C1.23727 17.5071 1.54771 17.5692 1.77747 17.416C2.00724 17.2628 2.06932 16.9524 1.91615 16.7226L1.0841 15.4746C1.02934 15.3924 1.00012 15.2959 1.00012 15.1972V12.5H7.50012C7.77627 12.5 8.00012 12.2761 8.00012 12C8.00012 11.7239 7.77627 11.5 7.50012 11.5H1.00012V6ZM14.0001 9V5.5H14.5001C16.2333 5.5 17.8098 6.32709 18.5969 7.80673C18.8948 8.36668 19.2029 8.9425 19.5531 9.5H14.5001C14.224 9.5 14.0001 9.27614 14.0001 9ZM20.0001 16.9895C20 16.9964 19.9999 17.0034 20.0001 17.0104C19.9945 18.1102 19.1012 19 18.0001 19C16.8956 19 16.0001 18.1046 16.0001 17C16.0001 15.8954 16.8956 15 18.0001 15C19.1012 15 19.9944 15.8898 20.0001 16.9895ZM6.00012 15C4.89555 15 4.00012 15.8954 4.00012 17C4.00012 18.1046 4.89555 19 6.00012 19C7.10469 19 8.00012 18.1046 8.00012 17C8.00012 15.8954 7.10469 15 6.00012 15Z" fill="#CC3333"/>
</g>
<defs>
<clipPath id="clip0_1_585">
<rect width="24" height="24" fill="white"/>
</clipPath>
</defs>
</svg>
