<svg width="40" height="40" viewBox="0 0 40 40" fill="none" xmlns="http://www.w3.org/2000/svg">
<g clip-path="url(#clip0_2203_20567)">
<path fill-rule="evenodd" clip-rule="evenodd" d="M38.838 17.3988C40.0321 18.551 40.2542 20.1649 39.7368 21.858C39.7244 21.8985 39.7121 21.9386 39.7 21.9784C39.0931 23.965 38.775 25.0065 37.7395 26.1359C37.1883 26.7371 36.6185 27.056 36.1624 27.2218C35.9364 27.304 35.7417 27.3474 35.5949 27.3703C35.5214 27.3817 35.4598 27.3881 35.4118 27.3916C35.3879 27.3933 35.3673 27.3943 35.3504 27.3949L35.3277 27.3955L35.3185 27.3956L35.3144 27.3957L35.3125 27.3957C35.3125 27.3957 35.3107 27.3957 35.3107 26.5624V27.3957H34.1667C33.7064 27.3957 33.3333 27.0226 33.3333 26.5624C33.3333 26.1021 33.7064 25.729 34.1667 25.729H35.2943C35.3016 25.7284 35.3166 25.7269 35.3383 25.7235C35.3899 25.7154 35.4788 25.697 35.593 25.6555C35.8174 25.5739 36.1549 25.398 36.511 25.0096C37.2694 24.1824 37.491 23.5039 38.1429 21.3709C38.5328 20.0952 38.3013 19.1969 37.6807 18.5982C37.0051 17.9463 35.6852 17.4631 33.5101 17.4997L33.4961 17.5L20.7939 17.4999C20.3336 17.4999 19.9605 17.1268 19.9605 16.6665C19.9605 16.2063 20.3336 15.8332 20.7939 15.8332H33.4891C35.8471 15.7945 37.7002 16.301 38.838 17.3988Z" fill="white"/>
<path fill-rule="evenodd" clip-rule="evenodd" d="M14.1417 10C14.147 10 14.1523 10 14.1576 10H19.198C21.2668 10 23.2825 10.6683 24.9909 11.9105L29.042 14.8562C29.0502 14.8621 29.0582 14.8682 29.0661 14.8744L29.0711 14.8782C29.0779 14.8833 29.0899 14.8922 29.1067 14.9044C29.1403 14.9288 29.193 14.966 29.2626 15.0118C29.4022 15.1037 29.6061 15.2281 29.8558 15.3525C30.3662 15.6068 31.0124 15.8333 31.6665 15.8333C32.1268 15.8333 32.4999 16.2064 32.4999 16.6667C32.4999 17.1269 32.1268 17.5 31.6665 17.5C30.654 17.5 29.7429 17.1583 29.1126 16.8443C28.792 16.6846 28.5298 16.5249 28.3459 16.4037C28.2536 16.3429 28.1802 16.2914 28.1281 16.2536C28.1021 16.2347 28.0813 16.2192 28.0661 16.2077L28.053 16.1977L24.0108 13.2585C22.5784 12.217 20.9039 11.6667 19.198 11.6667H14.1665C13.4874 11.6667 12.5562 11.6686 11.4028 12.0427C10.2525 12.4158 8.83641 13.1753 7.25579 14.7559L6.66674 14.1669C7.2558 14.7559 7.25579 14.7559 7.25579 14.7559L7.25461 14.7571L7.25334 14.7584L7.25056 14.7611L7.24405 14.7675L7.22713 14.7836C7.2141 14.7958 7.19752 14.811 7.1772 14.829C7.13656 14.8648 7.08098 14.9116 7.00889 14.9677C6.86465 15.0799 6.65462 15.229 6.36612 15.4021C5.78896 15.7484 4.89981 16.2324 3.59695 16.6667C2.38789 17.0697 2.01196 17.4066 1.8605 17.659C1.69051 17.9423 1.66676 18.3067 1.66676 19.2094C1.66676 19.7462 1.90985 20.887 2.26319 22.2014C2.60526 23.4739 3.01687 24.7912 3.29066 25.6126C3.4362 26.0492 3.20023 26.5211 2.76361 26.6667C2.32699 26.8122 1.85506 26.5762 1.70952 26.1396C1.42776 25.2943 1.00604 23.9449 0.65366 22.6341C0.312549 21.3652 9.02871e-05 20.006 9.02871e-05 19.2094C9.02871e-05 19.1736 3.79344e-05 19.1374 -1.48157e-05 19.101C-0.00108512 18.3626 -0.00230007 17.5243 0.431346 16.8015C0.904892 16.0123 1.77896 15.5158 3.0699 15.0855C4.26704 14.6865 5.04412 14.2516 5.50863 13.9729C5.74096 13.8335 5.89552 13.7222 5.98565 13.6521C6.03074 13.617 6.0598 13.5922 6.0745 13.5792L6.08433 13.5704C7.8344 11.8223 9.47141 10.9169 10.8886 10.4573C12.1595 10.0451 13.2178 10.0044 13.9345 10.0004C13.9436 10.0001 13.9527 10 13.9618 10H14.1417Z" fill="white"/>
<path fill-rule="evenodd" clip-rule="evenodd" d="M14.1667 26.6667C14.1667 26.2065 14.5398 25.8334 15 25.8334H25C25.4602 25.8334 25.8333 26.2065 25.8333 26.6667C25.8333 27.1269 25.4602 27.5 25 27.5H15C14.5398 27.5 14.1667 27.1269 14.1667 26.6667Z" fill="white"/>
<path fill-rule="evenodd" clip-rule="evenodd" d="M10.4167 22.5C8.34559 22.5 6.66665 24.1789 6.66665 26.25C6.66665 28.3211 8.34559 30 10.4167 30C12.4877 30 14.1667 28.3211 14.1667 26.25C14.1667 24.1789 12.4877 22.5 10.4167 22.5ZM4.99999 26.25C4.99999 23.2585 7.42511 20.8333 10.4167 20.8333C13.4082 20.8333 15.8333 23.2585 15.8333 26.25C15.8333 29.2415 13.4082 31.6667 10.4167 31.6667C7.42511 31.6667 4.99999 29.2415 4.99999 26.25Z" fill="white"/>
<path fill-rule="evenodd" clip-rule="evenodd" d="M29.5833 22.5C27.5123 22.5 25.8333 24.1789 25.8333 26.25C25.8333 28.3211 27.5123 30 29.5833 30C31.6544 30 33.3333 28.3211 33.3333 26.25C33.3333 24.1789 31.6544 22.5 29.5833 22.5ZM24.1667 26.25C24.1667 23.2585 26.5918 20.8333 29.5833 20.8333C32.5749 20.8333 35 23.2585 35 26.25C35 29.2415 32.5749 31.6667 29.5833 31.6667C26.5918 31.6667 24.1667 29.2415 24.1667 26.25Z" fill="white"/>
</g>
<defs>
<clipPath id="clip0_2203_20567">
<rect width="40" height="40" fill="white"/>
</clipPath>
</defs>
</svg>
