<svg width="160" height="48" viewBox="0 0 160 48" fill="none" xmlns="http://www.w3.org/2000/svg">
<rect width="160" height="48" rx="8" fill="#1A1A1A"/>
<path fill-rule="evenodd" clip-rule="evenodd" d="M58.9621 27.6045V29.4209H63.573C63.5006 30.2765 63.1244 31.0837 62.5056 31.7116C61.5728 32.6099 60.2819 33.0937 58.9515 33.0436C56.122 33.0436 53.8283 30.875 53.8283 28.1999C53.8283 25.5248 56.122 23.3562 58.9515 23.3562C60.2512 23.3362 61.5064 23.8043 62.4416 24.658L63.7971 23.3764C62.5216 22.1552 60.7774 21.4745 58.9621 21.4894C56.3781 21.3943 53.9462 22.6435 52.6243 24.7448C51.3023 26.8461 51.3023 29.4629 52.6243 31.5642C53.9462 33.6656 56.3781 34.9147 58.9621 34.8196C60.8105 34.8986 62.6046 34.2179 63.8824 32.9528C65.0006 31.7912 65.5976 30.2643 65.5475 28.6944C65.5509 28.3119 65.5151 27.93 65.4408 27.5541L58.9621 27.6045ZM70.7992 26.2827C68.2954 26.2883 66.2699 28.2108 66.2737 30.5781C66.2777 32.9454 68.3096 34.8619 70.8134 34.8601C73.3172 34.8582 75.3459 32.9386 75.3459 30.5714C75.3635 29.4254 74.8883 28.3218 74.0291 27.5133C73.17 26.7048 72.0005 26.2607 70.7886 26.2827H70.7992ZM76.221 30.5848C76.2132 28.2188 78.2334 26.2938 80.7357 26.2827C81.9478 26.2607 83.1172 26.7048 83.9764 27.5133C84.8356 28.3218 85.3108 29.4254 85.2932 30.5714C85.2932 32.9373 83.2667 34.8563 80.7642 34.86C78.2618 34.8637 76.2289 32.9507 76.221 30.5848ZM78.0585 31.6999C78.5459 32.6645 79.6074 33.2493 80.7353 33.1748C81.4433 33.1592 82.1146 32.874 82.5969 32.3838C83.0792 31.8936 83.3316 31.24 83.2969 30.5713C83.2942 29.5023 82.6005 28.5435 81.5478 28.1535C80.495 27.7636 79.2971 28.0217 78.527 28.8044C77.7569 29.5871 77.5711 30.7353 78.0585 31.6999ZM68.1148 31.7076C68.6056 32.6716 69.6702 33.2535 70.7987 33.1748H70.788C71.496 33.1592 72.1673 32.874 72.6496 32.3838C73.132 31.8936 73.3843 31.24 73.3496 30.5713C73.3466 29.5014 72.6516 28.5422 71.5974 28.1531C70.5434 27.764 69.3449 28.0242 68.5758 28.8091C67.8069 29.5939 67.624 30.7436 68.1148 31.7076ZM103.438 26.2828C105.208 26.3444 106.753 27.4324 107.323 29.0175L107.547 29.4716L101.474 31.843C101.855 32.6626 102.727 33.1788 103.673 33.1447C104.586 33.1469 105.433 32.6946 105.903 31.954L107.451 32.9631C106.609 34.1553 105.189 34.8679 103.673 34.8602C102.467 34.8769 101.306 34.4295 100.457 33.6206C99.6074 32.8118 99.1423 31.7111 99.1686 30.5715C99.0947 29.458 99.5118 28.3653 100.321 27.5528C101.129 26.7404 102.258 26.2807 103.438 26.2828ZM101.132 30.4503C101.088 29.8198 101.315 29.1992 101.761 28.7284C102.206 28.2576 102.834 27.9762 103.502 27.9477C104.205 27.9039 104.869 28.2612 105.188 28.8559L101.132 30.4503ZM98.1969 34.6078H96.2009V21.994H98.1969V34.6078ZM92.9346 27.2415H92.86C92.2516 26.5984 91.3818 26.2313 90.4692 26.2324C88.0466 26.3435 86.1427 28.2329 86.1427 30.5261C86.1427 32.8193 88.0466 34.7088 90.4692 34.8199C91.3847 34.8344 92.2601 34.4649 92.86 33.8108H92.924V34.4263C92.924 36.0712 91.9954 36.9491 90.5012 36.9491C89.4833 36.9265 88.5809 36.3245 88.2172 35.4253L86.4774 36.1115C87.1473 37.6522 88.7393 38.6543 90.5012 38.6444C92.8386 38.6444 94.7705 37.3426 94.7705 34.174V26.5351H92.9346V27.2415ZM90.6481 33.1746L90.6513 33.1749H90.6407L90.6481 33.1746ZM92.4466 32.3654C91.9885 32.8554 91.3389 33.1476 90.6481 33.1746C89.2225 33.0542 88.1297 31.9249 88.1297 30.5714C88.1297 29.2169 89.2242 28.0868 90.6513 27.9679C91.341 28.0014 91.9871 28.2966 92.4432 28.7868C92.8994 29.2769 93.1269 29.9204 93.0741 30.5714C93.133 31.2253 92.9062 31.8736 92.4466 32.3654ZM116.673 21.994H111.902V34.6078H113.899V29.8246H116.685C118.235 29.9299 119.717 29.2076 120.527 27.9527C121.336 26.6979 121.336 25.1208 120.527 23.8659C119.717 22.611 118.235 21.8887 116.685 21.994H116.673ZM113.886 28.0486H116.672L116.715 28.0789C117.979 28.0789 119.004 27.1098 119.004 25.9143C119.004 24.7189 117.979 23.7498 116.715 23.7498H113.886V28.0486ZM128.978 26.2323C127.493 26.1484 126.096 26.9054 125.424 28.1597L127.196 28.8559C127.552 28.234 128.264 27.8699 129.01 27.9276C129.521 27.8711 130.036 28.0113 130.437 28.3168C130.839 28.6223 131.093 29.0674 131.144 29.5522V29.6834C130.503 29.3625 129.789 29.1961 129.063 29.199C127.153 29.199 125.221 30.2081 125.221 32.0346C125.259 32.8214 125.632 33.5602 126.255 34.0829C126.879 34.6056 127.699 34.8677 128.53 34.8097C129.554 34.8792 130.536 34.4148 131.091 33.5987H131.155V34.6078H133.077V29.754C133.077 27.5441 131.304 26.2625 129.031 26.2625L128.978 26.2323ZM127.174 32.0748C127.174 32.8317 128.081 33.1445 128.732 33.1445L128.785 33.1748C129.988 33.147 130.985 32.2862 131.122 31.1565C130.569 30.8643 129.943 30.7179 129.308 30.7327C128.305 30.7327 127.174 31.0657 127.174 32.0748ZM140.079 26.535L137.795 32.0044H137.732L135.362 26.535H133.227L136.781 34.1841L134.753 38.4324H136.834L142.299 26.535H140.079ZM124.133 34.6078H122.137V21.994H124.133V34.6078Z" fill="white"/>
<path d="M19.1511 11.9417C18.8031 12.3364 18.6276 12.8416 18.6601 13.3545V35.6759C18.6276 36.1887 18.8031 36.6939 19.1511 37.0886L19.2257 37.1593L32.4498 24.6665V24.3739L19.2257 11.8711L19.1511 11.9417Z" fill="url(#paint0_linear_9581_165372)"/>
<path d="M36.8292 28.8332L32.4531 24.6656V24.373L36.8292 20.1953L36.9252 20.2457L42.1658 23.0611C43.66 23.8583 43.66 25.1702 42.1658 25.9775L36.9465 28.7828L36.8292 28.8332Z" fill="url(#paint1_linear_9581_165372)"/>
<path d="M36.959 28.7741L32.455 24.5156L19.1562 37.0891C19.7845 37.6113 20.7171 37.6367 21.3763 37.1496L36.9698 28.7741" fill="url(#paint2_linear_9581_165372)"/>
<path d="M36.9542 20.2557L21.3607 11.8801C20.7015 11.393 19.769 11.4185 19.1406 11.9407L32.4501 24.5141L36.9542 20.2557Z" fill="url(#paint3_linear_9581_165372)"/>
<path opacity="0.2" d="M36.831 28.6836L21.3656 37.0087C20.7327 37.4561 19.8638 37.4561 19.2309 37.0087L19.1562 37.0794L19.2309 37.15C19.8627 37.6007 20.7339 37.6007 21.3656 37.15L36.959 28.7744L36.831 28.6836Z" fill="white"/>
<path opacity="0.12" fill-rule="evenodd" clip-rule="evenodd" d="M36.8252 28.6832L42.1617 25.8275C42.7132 25.5701 43.1074 25.0856 43.229 24.5156C43.174 25.1457 42.7669 25.6999 42.1617 25.9687L36.9212 28.7741L36.8252 28.6832ZM18.6577 35.7314C18.6754 36.1754 18.8478 36.6036 19.151 36.9477L19.2258 37.0285L19.151 37.0991C18.8133 36.716 18.6381 36.2287 18.6577 35.7314ZM18.6577 35.7314C18.6584 35.7164 18.6591 35.7014 18.6601 35.6864V35.535C18.656 35.6007 18.6552 35.6662 18.6577 35.7314Z" fill="white"/>
<path opacity="0.25" d="M21.3593 12.0252L42.1613 23.206C42.7129 23.4634 43.107 23.9479 43.2287 24.5179C43.1737 23.8878 42.7666 23.3336 42.1613 23.0648L21.3593 11.8839C19.8652 11.0867 18.6484 11.7527 18.6484 13.3673V13.5186C18.6804 11.894 19.8758 11.228 21.3593 12.0252Z" fill="white"/>
<path d="M54.8818 7.94257C55.4027 7.90552 55.9254 7.98351 56.4123 8.17091C56.8991 8.35831 57.338 8.65044 57.6971 9.02625C58.0562 9.40205 58.3267 9.85215 58.489 10.3441C58.6513 10.836 58.7014 11.3575 58.6358 11.871C58.6358 14.3968 57.2582 15.8486 54.8818 15.8486H52V7.94257H54.8818ZM53.2391 14.7305H54.7433C55.1156 14.7526 55.4881 14.6921 55.8338 14.5535C56.1795 14.4149 56.4896 14.2016 56.7417 13.9292C56.9937 13.6569 57.1813 13.3322 57.2907 12.979C57.4002 12.6257 57.4288 12.2527 57.3744 11.8871C57.4248 11.5229 57.3933 11.1522 57.2822 10.8016C57.1711 10.4509 56.983 10.1289 56.7316 9.85869C56.4801 9.58849 56.1715 9.37674 55.8277 9.23863C55.484 9.10051 55.1137 9.03945 54.7433 9.05982H53.2391V14.7305Z" fill="white"/>
<path d="M65.4314 14.2363C65.27 14.7816 64.9202 15.2533 64.4433 15.5688C63.9663 15.8844 63.3926 16.0237 62.8225 15.9624C62.4259 15.9728 62.0317 15.8975 61.6673 15.7418C61.303 15.5861 60.9772 15.3536 60.7125 15.0606C60.4479 14.7676 60.2508 14.4211 60.1349 14.045C60.019 13.6689 59.9871 13.2724 60.0413 12.8828C59.9885 12.4921 60.021 12.0947 60.1366 11.7175C60.2523 11.3403 60.4483 10.9922 60.7116 10.6966C60.9748 10.401 61.299 10.1649 61.6623 10.0043C62.0256 9.84374 62.4195 9.76236 62.8173 9.76573C64.4926 9.76573 65.5032 10.8999 65.5032 12.7735V13.1844H61.2518V13.2503C61.2332 13.4693 61.2609 13.6897 61.3333 13.8974C61.4057 14.1051 61.5211 14.2955 61.672 14.4564C61.823 14.6173 62.0062 14.7452 62.21 14.8319C62.4137 14.9185 62.6335 14.962 62.8552 14.9596C63.1395 14.9934 63.4274 14.9427 63.6825 14.8139C63.9375 14.6851 64.1482 14.484 64.2876 14.2363L65.4314 14.2363ZM61.2517 12.3135H64.2928C64.3077 12.1133 64.2803 11.9121 64.2121 11.723C64.144 11.5339 64.0367 11.361 63.8971 11.2155C63.7576 11.0699 63.5888 10.9549 63.4017 10.8778C63.2146 10.8007 63.0133 10.7633 62.8107 10.7679C62.6052 10.7654 62.4013 10.8036 62.2109 10.8804C62.0206 10.9572 61.8477 11.0709 61.7024 11.215C61.5571 11.359 61.4424 11.5304 61.365 11.7191C61.2876 11.9078 61.2491 12.1099 61.2518 12.3135H61.2517Z" fill="white"/>
<path d="M69.2986 9.76562C70.6527 9.76562 71.538 10.39 71.6542 11.4419H70.5143C70.4046 11.0039 69.9724 10.7244 69.2986 10.7244C68.6353 10.7244 68.1314 11.0363 68.1314 11.5021C68.1314 11.8585 68.4356 12.0831 69.0885 12.2312L70.0886 12.4609C71.2338 12.7242 71.7704 13.212 71.7704 14.0887C71.7704 15.2119 70.7141 15.9623 69.2764 15.9623C67.844 15.9623 66.9105 15.3212 66.8047 14.264H67.9942C68.0967 14.5156 68.2816 14.7258 68.5191 14.8609C68.7565 14.9959 69.0329 15.048 69.3039 15.0087C70.0442 15.0087 70.5704 14.6801 70.5704 14.2032C70.5704 13.8474 70.2884 13.617 69.6852 13.4747L68.6353 13.2334C67.4902 12.9649 66.9601 12.4557 66.9601 11.5681C66.9601 10.5103 67.9381 9.76562 69.2986 9.76562Z" fill="white"/>
<path d="M77.3067 11.8328C77.2309 11.5235 77.0459 11.2512 76.785 11.0653C76.5242 10.8795 76.2048 10.7923 75.8847 10.8197C74.8898 10.8197 74.2813 11.5753 74.2813 12.8466C74.2813 14.1399 74.895 14.9124 75.8847 14.9124C76.2017 14.9488 76.5211 14.8692 76.7829 14.6886C77.0448 14.508 77.2311 14.2388 77.3067 13.9316H78.4623C78.3858 14.5358 78.0743 15.0864 77.594 15.4662C77.1137 15.8459 76.5027 16.0247 75.8913 15.9644C75.4887 15.977 75.0882 15.9023 74.7178 15.7455C74.3474 15.5887 74.0161 15.3536 73.7469 15.0566C73.4778 14.7597 73.2774 14.408 73.1597 14.0263C73.042 13.6446 73.0099 13.242 73.0657 12.8467C73.0127 12.4543 73.0469 12.0552 73.1657 11.6772C73.2845 11.2993 73.4851 10.9516 73.7536 10.6584C74.022 10.3652 74.3518 10.1336 74.7199 9.97977C75.088 9.82594 75.4855 9.75358 75.8847 9.76775C76.5012 9.71148 77.1154 9.8958 77.5968 10.2815C78.0782 10.6672 78.3887 11.2238 78.4623 11.8329L77.3067 11.8328Z" fill="white"/>
<path d="M79.6406 14.1613C79.6406 13.0874 80.4476 12.4682 81.88 12.3802L83.5108 12.2871V11.7721C83.5108 11.1419 83.0904 10.7861 82.2782 10.7861C81.6149 10.7861 81.1553 11.0274 81.0234 11.4492H79.8731C79.9945 10.4244 80.9673 9.76712 82.3331 9.76712C83.8425 9.76712 84.6938 10.5118 84.6938 11.7721V15.8487H83.55V15.0102H83.456C83.2652 15.3109 82.9972 15.5561 82.6795 15.7207C82.3618 15.8853 82.0057 15.9634 81.6476 15.947C81.3948 15.973 81.1393 15.9463 80.8977 15.8685C80.656 15.7907 80.4334 15.6636 80.2443 15.4954C80.0552 15.3272 79.9038 15.1215 79.7998 14.8918C79.6959 14.662 79.6416 14.4132 79.6406 14.1613ZM83.5108 13.6515V13.1527L82.0406 13.2459C81.2114 13.3009 80.8354 13.5804 80.8354 14.1063C80.8354 14.6433 81.3054 14.9558 81.9518 14.9558C82.1412 14.9748 82.3325 14.9559 82.5144 14.9001C82.6962 14.8443 82.8649 14.7529 83.0104 14.6312C83.1558 14.5095 83.2751 14.3601 83.3611 14.1918C83.447 14.0235 83.498 13.8397 83.5108 13.6515ZM81.6201 8.88463L83.0081 7H84.4014L82.8475 8.88463H81.6201Z" fill="white"/>
<path d="M86.5547 9.8839H87.6985V10.7987H87.7873C87.9154 10.4811 88.1417 10.212 88.4337 10.0298C88.7258 9.84766 89.0686 9.76192 89.413 9.78491C89.5909 9.78254 89.7686 9.79902 89.9431 9.83408V10.9961C89.725 10.9499 89.5028 10.9261 89.2798 10.9249C89.0838 10.9075 88.8863 10.9309 88.7 10.9936C88.5137 11.0563 88.3426 11.1569 88.1979 11.289C88.0532 11.4211 87.9379 11.5817 87.8596 11.7606C87.7812 11.9395 87.7415 12.1326 87.7429 12.3276V15.8503H86.5547L86.5547 9.8839Z" fill="white"/>
<path d="M91.0345 16.445H92.2508C92.3514 16.8779 92.8541 17.1573 93.6558 17.1573C94.6455 17.1573 95.2318 16.6915 95.2318 15.9029V14.7577H95.143C94.9567 15.0783 94.6845 15.3415 94.3566 15.5184C94.0287 15.6952 93.6578 15.7788 93.285 15.7599C91.7481 15.7599 90.7969 14.5824 90.7969 12.7961C90.7969 10.9769 91.7586 9.7825 93.2967 9.7825C93.6789 9.76931 94.0574 9.86046 94.3908 10.046C94.7242 10.2315 94.9998 10.5043 95.1874 10.8345H95.2814V9.88149H96.42V15.897C96.42 17.2615 95.3415 18.1271 93.6388 18.1271C92.1346 18.1272 91.1612 17.4588 91.0345 16.445ZM95.254 12.7903C95.254 11.6018 94.6338 10.8403 93.6218 10.8403C92.5994 10.8403 92.0249 11.6018 92.0249 12.7903C92.0249 13.9794 92.5994 14.7409 93.6218 14.7409C94.6403 14.7409 95.254 13.9852 95.254 12.7903H95.254Z" fill="white"/>
<path d="M97.9688 14.1599C97.9688 13.0859 98.7757 12.4667 100.208 12.3787L101.839 12.2856V11.7706C101.839 11.1404 101.419 10.7846 100.606 10.7846C99.943 10.7846 99.4834 11.0259 99.3515 11.4478H98.2012C98.3226 10.4229 99.2954 9.76562 100.661 9.76562C102.171 9.76562 103.022 10.5103 103.022 11.7706V15.8472H101.878V15.0087H101.784C101.593 15.3095 101.325 15.5546 101.008 15.7192C100.69 15.8838 100.334 15.9619 99.9757 15.9455C99.7229 15.9715 99.4675 15.9448 99.2258 15.867C98.9841 15.7892 98.7615 15.6621 98.5724 15.4939C98.3834 15.3257 98.2319 15.12 98.128 14.8903C98.024 14.6605 97.9697 14.4117 97.9688 14.1599ZM101.839 13.65V13.1512L100.369 13.2444C99.5395 13.2994 99.1635 13.5789 99.1635 14.1049C99.1635 14.6418 99.6336 14.9543 100.28 14.9543C100.469 14.9733 100.661 14.9544 100.843 14.8986C101.024 14.8428 101.193 14.7514 101.338 14.6297C101.484 14.508 101.603 14.3586 101.689 14.1903C101.775 14.022 101.826 13.8382 101.839 13.65Z" fill="white"/>
<path d="M104.938 7.55469H106.126V15.8502H104.938V7.55469Z" fill="white"/>
<path d="M107.779 12.8613C107.741 12.4692 107.786 12.0736 107.912 11.6999C108.037 11.3261 108.24 10.9825 108.508 10.691C108.775 10.3996 109.101 10.1667 109.464 10.0073C109.828 9.84795 110.221 9.76562 110.618 9.76562C111.016 9.76562 111.409 9.84795 111.772 10.0073C112.136 10.1667 112.462 10.3996 112.729 10.691C112.996 10.9825 113.199 11.3261 113.325 11.6999C113.45 12.0736 113.496 12.4692 113.458 12.8613C113.496 13.2538 113.452 13.65 113.326 14.0243C113.201 14.3987 112.998 14.7429 112.731 15.035C112.464 15.327 112.138 15.5604 111.774 15.7201C111.41 15.8798 111.016 15.9623 110.618 15.9623C110.22 15.9623 109.827 15.8798 109.463 15.7201C109.099 15.5604 108.773 15.327 108.506 15.035C108.238 14.7429 108.035 14.3987 107.91 14.0243C107.785 13.65 107.74 13.2538 107.779 12.8613ZM112.236 12.8613C112.236 11.568 111.649 10.8117 110.62 10.8117C109.588 10.8117 109.006 11.568 109.006 12.8613C109.006 14.165 109.588 14.9155 110.62 14.9155C111.649 14.9155 112.236 14.1598 112.236 12.8613H112.236Z" fill="white"/>
<path d="M123.416 14.2363C123.254 14.7816 122.905 15.2533 122.428 15.5688C121.951 15.8844 121.377 16.0237 120.807 15.9624C120.41 15.9728 120.016 15.8975 119.652 15.7418C119.287 15.5861 118.962 15.3536 118.697 15.0606C118.432 14.7676 118.235 14.4211 118.119 14.045C118.003 13.6689 117.971 13.2724 118.026 12.8828C117.973 12.4921 118.005 12.0947 118.121 11.7175C118.237 11.3403 118.433 10.9922 118.696 10.6966C118.959 10.401 119.283 10.1649 119.647 10.0043C120.01 9.84374 120.404 9.76236 120.802 9.76573C122.477 9.76573 123.488 10.8999 123.488 12.7735V13.1844H119.236V13.2503C119.217 13.4693 119.245 13.6897 119.318 13.8974C119.39 14.1051 119.505 14.2955 119.656 14.4564C119.807 14.6173 119.991 14.7452 120.194 14.8319C120.398 14.9185 120.618 14.962 120.84 14.9596C121.124 14.9934 121.412 14.9427 121.667 14.8139C121.922 14.6851 122.132 14.484 122.272 14.2363L123.416 14.2363ZM119.236 12.3135H122.277C122.292 12.1133 122.265 11.9121 122.196 11.723C122.128 11.5339 122.021 11.361 121.881 11.2155C121.742 11.0699 121.573 10.9549 121.386 10.8778C121.199 10.8007 120.998 10.7633 120.795 10.7679C120.59 10.7653 120.386 10.8036 120.195 10.8804C120.005 10.9571 119.832 11.0709 119.687 11.215C119.541 11.359 119.427 11.5304 119.349 11.7191C119.272 11.9078 119.233 12.1099 119.236 12.3135H119.236Z" fill="white"/>
<path d="M125.078 9.88276H126.222V10.8306H126.311C126.461 10.4902 126.715 10.2048 127.037 10.0142C127.36 9.8237 127.734 9.73748 128.107 9.76759C128.4 9.74577 128.695 9.78954 128.968 9.89566C129.242 10.0018 129.488 10.1676 129.688 10.3807C129.888 10.5938 130.037 10.8488 130.124 11.1268C130.211 11.4048 130.234 11.6987 130.191 11.9867V15.8491H129.003V12.2824C129.003 11.3236 128.583 10.8468 127.704 10.8468C127.505 10.8376 127.307 10.8711 127.122 10.9451C126.937 11.0191 126.771 11.1317 126.635 11.2753C126.498 11.4189 126.394 11.5901 126.331 11.7771C126.267 11.9641 126.245 12.1625 126.266 12.3587V15.8491H125.078V9.88276Z" fill="white"/>
<rect x="0.5" y="0.5" width="159" height="47" rx="7.5" stroke="white" stroke-opacity="0.7"/>
<defs>
<linearGradient id="paint0_linear_9581_165372" x1="26.6577" y1="-3.29472" x2="5.64752" y2="2.61533" gradientUnits="userSpaceOnUse">
<stop stop-color="#00A0FF"/>
<stop offset="0.01" stop-color="#00A1FF"/>
<stop offset="0.26" stop-color="#00BEFF"/>
<stop offset="0.51" stop-color="#00D2FF"/>
<stop offset="0.76" stop-color="#00DFFF"/>
<stop offset="1" stop-color="#00E3FF"/>
</linearGradient>
<linearGradient id="paint1_linear_9581_165372" x1="44.1189" y1="14.2211" x2="18.3006" y2="14.2211" gradientUnits="userSpaceOnUse">
<stop stop-color="#FFE000"/>
<stop offset="0.41" stop-color="#FFBD00"/>
<stop offset="0.78" stop-color="#FFA500"/>
<stop offset="1" stop-color="#FF9C00"/>
</linearGradient>
<linearGradient id="paint2_linear_9581_165372" x1="18.7655" y1="17.9842" x2="3.12775" y2="45.8057" gradientUnits="userSpaceOnUse">
<stop stop-color="#FF3A44"/>
<stop offset="1" stop-color="#C31162"/>
</linearGradient>
<linearGradient id="paint3_linear_9581_165372" x1="8.76634" y1="8.46537" x2="15.7461" y2="20.8889" gradientUnits="userSpaceOnUse">
<stop stop-color="#32A071"/>
<stop offset="0.07" stop-color="#2DA771"/>
<stop offset="0.48" stop-color="#15CF74"/>
<stop offset="0.8" stop-color="#06E775"/>
<stop offset="1" stop-color="#00F076"/>
</linearGradient>
</defs>
</svg>
