<svg width="24" height="24" viewBox="0 0 24 24" fill="none" xmlns="http://www.w3.org/2000/svg">
<g clip-path="url(#clip0_1_557)">
<path fill-rule="evenodd" clip-rule="evenodd" d="M2.09192 3.23707C2.21542 2.99008 2.51575 2.88997 2.76274 3.01347L12.7627 8.01347C13.0097 8.13696 13.1098 8.4373 12.9863 8.68429C12.8629 8.93128 12.5625 9.03139 12.3155 8.90789L2.31553 3.90789C2.06854 3.7844 1.96843 3.48406 2.09192 3.23707Z" fill="#CC3333"/>
<path fill-rule="evenodd" clip-rule="evenodd" d="M2.5 2.9621C2.77614 2.9621 3 3.18596 3 3.4621V6.4621C3 6.73825 2.77614 6.9621 2.5 6.9621C2.22386 6.9621 2 6.73825 2 6.4621V3.4621C2 3.18596 2.22386 2.9621 2.5 2.9621Z" fill="#CC3333"/>
<path fill-rule="evenodd" clip-rule="evenodd" d="M15.535 4.00001C15.5281 4.00001 15.5213 4.00015 15.5145 4.00043L15.5013 4.00026C15.2252 4.00026 15.0013 4.22412 15.0013 4.50026L15.0171 10.4905L0.451611 12.0024C0.195419 12.0273 0 12.2426 0 12.5V16.5C0 16.7762 0.223858 17 0.5 17C0.776142 17 1 16.7762 1 16.5V12.9538L15.0171 11.4952V11.5002L15.0195 11.495L15.5507 11.4434C15.8256 11.4166 16.0267 11.1722 16 10.8973V5.00002H20.5547C20.6273 5.00002 20.6774 5.02852 20.7102 5.08252L22.7744 10.5H18.5C18.2239 10.5 18 10.7239 18 11C18 11.2762 18.2239 11.5 18.5 11.5H23V16.4938H21.1602C20.5972 15.3148 19.3937 14.5001 18 14.5001C16.6038 14.5001 15.3986 15.3176 14.8368 16.5001H9.66315C9.10141 15.3176 7.89617 14.5001 6.5 14.5001C4.567 14.5001 3 16.0671 3 18.0001C3 19.9331 4.567 21.5001 6.5 21.5001C8.433 21.5001 10 19.9331 10 18.0001C10 17.8303 9.98791 17.6634 9.96455 17.5001H14.5355C14.5121 17.6634 14.5 17.8303 14.5 18.0001C14.5 19.9331 16.067 21.5001 18 21.5001C19.933 21.5001 21.5 19.9331 21.5 18.0001C21.5 17.8282 21.4876 17.6591 21.4636 17.4938H23C23.2035 17.4938 23.5152 17.4745 23.7459 17.2474C23.9791 17.0179 24 16.7049 24 16.4999V11C24 10.9392 23.9889 10.8788 23.9672 10.822L21.633 4.69591C21.627 4.67997 21.6201 4.66436 21.6124 4.64913C21.4074 4.24184 21.0061 4.00001 20.5547 4.00001H15.535ZM15.5 18.0001C15.5 16.6194 16.6193 15.5001 18 15.5001C19.3807 15.5001 20.5 16.6194 20.5 18.0001C20.5 19.3808 19.3807 20.5001 18 20.5001C16.6193 20.5001 15.5 19.3808 15.5 18.0001ZM4 18.0001C4 16.6194 5.11929 15.5001 6.5 15.5001C7.88071 15.5001 9 16.6194 9 18.0001C9 19.3808 7.88071 20.5001 6.5 20.5001C5.11929 20.5001 4 19.3808 4 18.0001Z" fill="#CC3333"/>
</g>
<defs>
<clipPath id="clip0_1_557">
<rect width="24" height="24" fill="white"/>
</clipPath>
</defs>
</svg>
