<svg width="22" height="16" viewBox="0 0 22 16" fill="none" xmlns="http://www.w3.org/2000/svg">
<g clip-path="url(#clip0_11571_13750)">
<mask id="mask0_11571_13750" style="mask-type:alpha" maskUnits="userSpaceOnUse" x="0" y="0" width="22" height="16">
<path d="M19.9048 0H2.09524C0.93807 0 0 0.955126 0 2.13333V13.8667C0 15.0449 0.93807 16 2.09524 16H19.9048C21.0619 16 22 15.0449 22 13.8667V2.13333C22 0.955126 21.0619 0 19.9048 0Z" fill="white"/>
</mask>
<g mask="url(#mask0_11571_13750)">
<path d="M19.9048 0H2.09524C0.93807 0 0 0.955126 0 2.13333V13.8667C0 15.0449 0.93807 16 2.09524 16H19.9048C21.0619 16 22 15.0449 22 13.8667V2.13333C22 0.955126 21.0619 0 19.9048 0Z" fill="#22438B"/>
<path fill-rule="evenodd" clip-rule="evenodd" d="M3.14286 1.06641L1.02039 1.09414L1.04762 3.19974L18.8383 14.9629L20.9723 14.9235L20.9325 12.8307L3.14286 1.06641Z" fill="white"/>
<path fill-rule="evenodd" clip-rule="evenodd" d="M2.09523 1.06641L1.04761 2.13307L19.9048 14.9331L20.9524 13.8664L2.09523 1.06641Z" fill="#C7152A"/>
<path fill-rule="evenodd" clip-rule="evenodd" d="M18.8571 1.06641H20.9524V3.19974C20.9524 3.19974 8.64285 11.0888 3.16171 14.9629C3.09571 15.0099 1.06857 14.9661 1.06857 14.9661L0.906189 12.9384L18.8571 1.06641Z" fill="white"/>
<path fill-rule="evenodd" clip-rule="evenodd" d="M19.9498 1.03711L20.9524 2.13364L2.09523 14.9336L1.04761 13.867L19.9498 1.03711Z" fill="#C7152A"/>
<path fill-rule="evenodd" clip-rule="evenodd" d="M8.38094 1.06641H13.619V5.33307H20.9524V10.6664H13.619V14.9331H8.38094V10.6664H1.04761V5.33307H8.38094V1.06641Z" fill="white"/>
<path fill-rule="evenodd" clip-rule="evenodd" d="M9.42856 1.06641H12.5714V6.39974H20.9524V9.59974H12.5714V14.9331H9.42856V9.59974H1.04761V6.39974H9.42856V1.06641Z" fill="#C7152A"/>
<path d="M19.9048 0.533203H2.09523C1.22736 0.533203 0.523804 1.24955 0.523804 2.1332V13.8665C0.523804 14.7502 1.22736 15.4665 2.09523 15.4665H19.9048C20.7726 15.4665 21.4762 14.7502 21.4762 13.8665V2.1332C21.4762 1.24955 20.7726 0.533203 19.9048 0.533203Z" stroke="black" stroke-opacity="0.1"/>
</g>
</g>
<defs>
<clipPath id="clip0_11571_13750">
<rect width="22" height="16" fill="white"/>
</clipPath>
</defs>
</svg>
