<svg width="58" height="22" viewBox="0 0 58 22" fill="none" xmlns="http://www.w3.org/2000/svg">
<rect x="0.0859375" width="57" height="22" rx="11" fill="#CC3333"/>
<path d="M9.93394 11.544L10.2339 17.604H8.81794L9.12994 11.544H9.93394ZM8.74594 9.84C8.74594 9.408 9.09394 9.048 9.52594 9.048C9.95794 9.048 10.3179 9.408 10.3179 9.84C10.3179 10.272 9.95794 10.62 9.52594 10.62C9.09394 10.62 8.74594 10.272 8.74594 9.84ZM18.9965 15H17.7725L13.1765 8.064V15H12.0005V6.492H13.5725L17.8205 13.02V6.492H18.9965V15ZM24.7377 14.304C24.4257 14.904 23.7057 15.18 23.0337 15.18C21.6897 15.18 20.8737 14.172 20.8737 12.864V9.228H22.0017V12.696C22.0017 13.488 22.3617 14.184 23.3097 14.184C24.2217 14.184 24.6777 13.584 24.6777 12.708V9.228H25.8057V13.932C25.8057 14.388 25.8417 14.796 25.8657 15H24.7857C24.7617 14.868 24.7377 14.544 24.7377 14.304ZM28.3328 11.52H31.4888C31.4648 10.692 30.9248 10.044 29.9048 10.044C28.9568 10.044 28.3808 10.776 28.3328 11.52ZM31.6568 13.02L32.6288 13.356C32.3048 14.376 31.3808 15.18 30.0368 15.18C28.4888 15.18 27.1328 14.052 27.1328 12.096C27.1328 10.284 28.4408 9.048 29.8928 9.048C31.6688 9.048 32.6648 10.272 32.6648 12.072C32.6648 12.216 32.6528 12.36 32.6408 12.432H28.2968C28.3208 13.464 29.0648 14.184 30.0368 14.184C30.9728 14.184 31.4408 13.668 31.6568 13.02ZM38.8961 9.228L36.5921 15H35.4521L33.1121 9.228H34.3841L36.0281 13.68L37.6841 9.228H38.8961ZM42.3487 14.172C43.3087 14.172 44.1487 13.452 44.1487 12.108C44.1487 10.776 43.3087 10.056 42.3487 10.056C41.3887 10.056 40.5487 10.776 40.5487 12.108C40.5487 13.452 41.3887 14.172 42.3487 14.172ZM42.3487 9.048C44.0767 9.048 45.3007 10.356 45.3007 12.108C45.3007 13.872 44.0767 15.18 42.3487 15.18C40.6207 15.18 39.3967 13.872 39.3967 12.108C39.3967 10.356 40.6207 9.048 42.3487 9.048ZM47.9417 6.492L47.6417 12.564H46.8377L46.5257 6.492H47.9417ZM46.4537 14.28C46.4537 13.848 46.8017 13.488 47.2337 13.488C47.6657 13.488 48.0257 13.848 48.0257 14.28C48.0257 14.712 47.6657 15.06 47.2337 15.06C46.8017 15.06 46.4537 14.712 46.4537 14.28Z" fill="white"/>
</svg>
