<svg width="42" height="20" viewBox="0 0 42 20" fill="none" xmlns="http://www.w3.org/2000/svg">
<rect width="42" height="20" rx="10" fill="#DEF0DB"/>
<path d="M14.312 14V12.908H10.316V10.304H13.94V9.2H10.316V6.584H14.312V5.492H9.14V14H14.312ZM19.5358 14.18C21.4918 14.18 22.8358 13.04 23.2918 11.444L22.2478 11.06C21.8998 12.224 20.9878 13.1 19.5358 13.1C17.9878 13.1 16.5118 11.96 16.5118 9.74C16.5118 7.52 17.9878 6.392 19.5358 6.392C20.9278 6.392 21.8638 7.112 22.1878 8.396L23.2798 8.012C22.8478 6.368 21.4798 5.312 19.5358 5.312C17.4238 5.312 15.3118 6.896 15.3118 9.74C15.3118 12.584 17.3398 14.18 19.5358 14.18ZM25.3563 9.74C25.3563 7.52 26.8443 6.392 28.4283 6.392C30.0123 6.392 31.5003 7.52 31.5003 9.74C31.5003 11.96 30.0123 13.1 28.4283 13.1C26.8443 13.1 25.3563 11.96 25.3563 9.74ZM24.1563 9.74C24.1563 12.584 26.2923 14.18 28.4283 14.18C30.5643 14.18 32.7003 12.584 32.7003 9.74C32.7003 6.896 30.5643 5.312 28.4283 5.312C26.2923 5.312 24.1563 6.896 24.1563 9.74Z" fill="#356C2D"/>
</svg>
