<svg width="24" height="24" viewBox="0 0 24 24" fill="none" xmlns="http://www.w3.org/2000/svg">
<path fill-rule="evenodd" clip-rule="evenodd" d="M12 2C9.87999 2 7.84573 2.85113 6.34502 4.36789C4.84413 5.88483 4 7.94336 4 10.0909C4 13.2328 6.0101 16.2138 8.1148 18.4592C9.15724 19.5713 10.2013 20.4802 10.9854 21.1112C11.377 21.4264 11.7027 21.6714 11.9296 21.837C11.9542 21.855 11.9777 21.8721 12 21.8882C12.0223 21.8721 12.0458 21.855 12.0704 21.837C12.2973 21.6714 12.623 21.4264 13.0146 21.1112C13.7987 20.4802 14.8428 19.5713 15.8852 18.4592C17.9899 16.2138 20 13.2328 20 10.0909C20 7.94336 19.1559 5.88483 17.655 4.36789C16.1543 2.85113 14.12 2 12 2ZM12 22.5C11.7206 22.9147 11.7203 22.9144 11.7203 22.9144L11.7182 22.913L11.7127 22.9093L11.6926 22.8956C11.6753 22.8837 11.6502 22.8664 11.6178 22.8437C11.553 22.7983 11.459 22.7316 11.34 22.6447C11.102 22.471 10.7636 22.2164 10.3584 21.8902C9.54865 21.2385 8.46776 20.298 7.3852 19.1431C5.2399 16.8544 3 13.6308 3 10.0909C3 7.68156 3.94693 5.36983 5.63416 3.66455C7.32157 1.9591 9.61132 1 12 1C14.3887 1 16.6784 1.9591 18.3658 3.66455C20.0531 5.36983 21 7.68156 21 10.0909C21 13.6308 18.7601 16.8544 16.6148 19.1431C15.5322 20.298 14.4513 21.2385 13.6416 21.8902C13.2364 22.2164 12.898 22.471 12.66 22.6447C12.541 22.7316 12.447 22.7983 12.3822 22.8437C12.3498 22.8664 12.3247 22.8837 12.3074 22.8956L12.2873 22.9093L12.2818 22.913L12.2802 22.9141C12.2802 22.9141 12.2794 22.9147 12 22.5ZM12 22.5L12.2802 22.9141C12.1113 23.0279 11.8892 23.0282 11.7203 22.9144L12 22.5Z" fill="#CC3333"/>
<path fill-rule="evenodd" clip-rule="evenodd" d="M12 7.5C10.6193 7.5 9.5 8.61929 9.5 10C9.5 11.3807 10.6193 12.5 12 12.5C13.3807 12.5 14.5 11.3807 14.5 10C14.5 8.61929 13.3807 7.5 12 7.5ZM8.5 10C8.5 8.067 10.067 6.5 12 6.5C13.933 6.5 15.5 8.067 15.5 10C15.5 11.933 13.933 13.5 12 13.5C10.067 13.5 8.5 11.933 8.5 10Z" fill="#CC3333"/>
</svg>
