<svg width="24" height="24" viewBox="0 0 24 24" fill="none" xmlns="http://www.w3.org/2000/svg">
<path fill-rule="evenodd" clip-rule="evenodd" d="M12 2.5C6.75329 2.5 2.5 6.75329 2.5 12C2.5 17.2467 6.75329 21.5 12 21.5C17.2467 21.5 21.5 17.2467 21.5 12C21.5 6.75329 17.2467 2.5 12 2.5ZM1.5 12C1.5 6.20101 6.20101 1.5 12 1.5C17.799 1.5 22.5 6.20101 22.5 12C22.5 17.799 17.799 22.5 12 22.5C6.20101 22.5 1.5 17.799 1.5 12ZM12 5.5002C12.2761 5.5002 12.5 5.72405 12.5 6.0002V11.5002L18 11.5002C18.2761 11.5002 18.5 11.7241 18.5 12.0002C18.5 12.2763 18.2761 12.5002 18 12.5002L12 12.5002C11.8674 12.5002 11.7402 12.4475 11.6464 12.3537C11.5527 12.26 11.5 12.1328 11.5 12.0002V6.0002C11.5 5.72405 11.7239 5.5002 12 5.5002Z" fill="#CC3333"/>
</svg>
