<svg width="24" height="24" viewBox="0 0 24 24" fill="none" xmlns="http://www.w3.org/2000/svg">
<path fill-rule="evenodd" clip-rule="evenodd" d="M12 2C6.47715 2 2 6.47715 2 12C2 17.5228 6.47715 22 12 22C17.5228 22 22 17.5228 22 12C22 6.47715 17.5228 2 12 2ZM1 12C1 5.92487 5.92487 1 12 1C18.0751 1 23 5.92487 23 12C23 18.0751 18.0751 23 12 23C5.92487 23 1 18.0751 1 12ZM12 5.34091C10.6946 5.34091 9.63636 6.39915 9.63636 7.70455C9.63636 9.00995 10.6946 10.0682 12 10.0682C13.3054 10.0682 14.3636 9.00995 14.3636 7.70455C14.3636 6.39915 13.3054 5.34091 12 5.34091ZM8.63636 7.70455C8.63636 5.84686 10.1423 4.34091 12 4.34091C13.8577 4.34091 15.3636 5.84686 15.3636 7.70455C15.3636 9.56223 13.8577 11.0682 12 11.0682C10.1423 11.0682 8.63636 9.56223 8.63636 7.70455ZM12 12.9773C9.11306 12.9773 6.77273 15.3176 6.77273 18.2045C6.77273 18.4807 6.54887 18.7045 6.27273 18.7045C5.99658 18.7045 5.77273 18.4807 5.77273 18.2045C5.77273 14.7653 8.56077 11.9773 12 11.9773C15.4392 11.9773 18.2273 14.7653 18.2273 18.2045C18.2273 18.4807 18.0034 18.7045 17.7273 18.7045C17.4511 18.7045 17.2273 18.4807 17.2273 18.2045C17.2273 15.3176 14.8869 12.9773 12 12.9773Z" fill="#CC3333"/>
</svg>
