<svg width="24" height="24" viewBox="0 0 24 24" fill="none" xmlns="http://www.w3.org/2000/svg">
<path fill-rule="evenodd" clip-rule="evenodd" d="M7.5 3C7.5 2.72386 7.72386 2.5 8 2.5H20C20.2761 2.5 20.5 2.72386 20.5 3V11.5C20.5 11.7761 20.2761 12 20 12C19.7239 12 19.5 11.7761 19.5 11.5V3.5H8C7.72386 3.5 7.5 3.27614 7.5 3Z" fill="#CC3333"/>
<path fill-rule="evenodd" clip-rule="evenodd" d="M4 12C3.60218 12 3.22064 12.158 2.93934 12.4393C2.65804 12.7206 2.5 13.1022 2.5 13.5V19C2.5 19.3978 2.65804 19.7794 2.93934 20.0607C3.22064 20.342 3.60218 20.5 4 20.5H7C7.27614 20.5 7.5 20.7239 7.5 21C7.5 21.2761 7.27614 21.5 7 21.5H4C3.33696 21.5 2.70107 21.2366 2.23223 20.7678C1.76339 20.2989 1.5 19.663 1.5 19V13.5C1.5 12.837 1.76339 12.2011 2.23223 11.7322C2.70107 11.2634 3.33696 11 4 11C4.27614 11 4.5 11.2239 4.5 11.5C4.5 11.7761 4.27614 12 4 12ZM12.5 11.5C12.5 11.2239 12.7239 11 13 11H20C20.663 11 21.2989 11.2634 21.7678 11.7322C22.2366 12.2011 22.5 12.837 22.5 13.5V19C22.5 19.663 22.2366 20.2989 21.7678 20.7678C21.2989 21.2366 20.663 21.5 20 21.5H11.5C11.2239 21.5 11 21.2761 11 21C11 20.7239 11.2239 20.5 11.5 20.5H20C20.3978 20.5 20.7794 20.342 21.0607 20.0607C21.342 19.7794 21.5 19.3978 21.5 19V13.5C21.5 13.1022 21.342 12.7206 21.0607 12.4393C20.7794 12.158 20.3978 12 20 12H13C12.7239 12 12.5 11.7761 12.5 11.5Z" fill="#CC3333"/>
<path fill-rule="evenodd" clip-rule="evenodd" d="M3.5 8.5C3.5 7.11929 4.61929 6 6 6H7.5C8.88071 6 10 7.11929 10 8.5V16C10 17.3807 8.88071 18.5 7.5 18.5H6C4.61929 18.5 3.5 17.3807 3.5 16V8.5ZM6 7C5.17157 7 4.5 7.67157 4.5 8.5V16C4.5 16.8284 5.17157 17.5 6 17.5H7.5C8.32843 17.5 9 16.8284 9 16V8.5C9 7.67157 8.32843 7 7.5 7H6Z" fill="#CC3333"/>
<path fill-rule="evenodd" clip-rule="evenodd" d="M12 6C12 5.72386 12.2239 5.5 12.5 5.5H15C15.2761 5.5 15.5 5.72386 15.5 6C15.5 6.27614 15.2761 6.5 15 6.5H12.5C12.2239 6.5 12 6.27614 12 6Z" fill="#CC3333"/>
<path fill-rule="evenodd" clip-rule="evenodd" d="M12 9C12 8.72386 12.2239 8.5 12.5 8.5H16.5C16.7761 8.5 17 8.72386 17 9C17 9.27614 16.7761 9.5 16.5 9.5H12.5C12.2239 9.5 12 9.27614 12 9Z" fill="#CC3333"/>
</svg>
