<svg width="24" height="24" viewBox="0 0 24 24" fill="none" xmlns="http://www.w3.org/2000/svg">
<path d="M6.2778 8.05559C7.25965 8.05559 8.05559 7.25965 8.05559 6.2778C8.05559 5.29595 7.25965 4.5 6.2778 4.5C5.29595 4.5 4.5 5.29595 4.5 6.2778C4.5 7.25965 5.29595 8.05559 6.2778 8.05559Z" fill="white" fill-opacity="0.7"/>
<path d="M9.68376 9.36946H12.6301V10.7192C12.6301 10.7192 13.4297 9.12013 15.6051 9.12013C17.5457 9.12013 19.1533 10.0761 19.1533 12.99V19.1346H16.1V13.7346C16.1 12.0156 15.1823 11.8266 14.483 11.8266C13.0317 11.8266 12.7833 13.0784 12.7833 13.9588V19.1346H9.68376V9.36946Z" fill="white" fill-opacity="0.7"/>
<path d="M4.72805 9.36942H7.82755V19.1345H4.72805V9.36942Z" fill="white" fill-opacity="0.7"/>
</svg>
