<svg width="24" height="19" viewBox="0 0 24 19" fill="none" xmlns="http://www.w3.org/2000/svg">
<path d="M11.7712 0.555493L0.776396 6.0529C0.529406 6.17639 0.429294 6.47673 0.552789 6.72372C0.676284 6.97071 0.97662 7.07082 1.22361 6.94732L12 1.55913L22.7764 6.94732C23.0234 7.07082 23.3237 6.97071 23.4472 6.72372C23.5707 6.47673 23.4706 6.17639 23.2236 6.0529L12.2288 0.555495C12.219 0.550441 12.209 0.545717 12.1988 0.54133C12.1343 0.513287 12.0667 0.499948 12 0.5C11.9333 0.499948 11.8657 0.513285 11.8012 0.541329C11.791 0.545715 11.781 0.55044 11.7712 0.555493Z" fill="#CC3333"/>
<path d="M2 8.00011C2 7.72397 2.22386 7.50011 2.5 7.50011C2.77614 7.50011 3 7.72397 3 8.00011V17.0001C3 17.2763 2.77614 17.5001 2.5 17.5001C2.22386 17.5001 2 17.2763 2 17.0001V8.00011Z" fill="#CC3333"/>
<path d="M21 8.00011C21 7.72397 21.2239 7.50011 21.5 7.50011C21.7761 7.50011 22 7.72397 22 8.00011V17.0001C22 17.2763 21.7761 17.5001 21.5 17.5001C21.2239 17.5001 21 17.2763 21 17.0001V8.00011Z" fill="#CC3333"/>
<path fill-rule="evenodd" clip-rule="evenodd" d="M8.92097 6.02985C9.50923 5.17197 10.4932 4.50011 12 4.50011C13.5068 4.50011 14.4908 5.17197 15.079 6.02985C15.6491 6.86119 15.8333 7.84153 15.8333 8.50011V10.5001H16.4C17.0075 10.5001 17.5 10.9926 17.5 11.6001V17.9001C17.5 18.5076 17.0075 19.0001 16.4 19.0001H7.6C6.99249 19.0001 6.5 18.5076 6.5 17.9001V11.6001C6.5 10.9926 6.99249 10.5001 7.6 10.5001H8.16667V8.50011C8.16667 7.84153 8.3509 6.86119 8.92097 6.02985ZM9.16667 10.5001H14.8333V8.50011C14.8333 7.99202 14.6842 7.22236 14.2543 6.59537C13.8426 5.99491 13.1599 5.50011 12 5.50011C10.8401 5.50011 10.1574 5.99491 9.7457 6.59537C9.31577 7.22236 9.16667 7.99202 9.16667 8.50011V10.5001ZM7.6 11.5001C7.54477 11.5001 7.5 11.5449 7.5 11.6001V17.9001C7.5 17.9553 7.54477 18.0001 7.6 18.0001H16.4C16.4552 18.0001 16.5 17.9553 16.5 17.9001V11.6001C16.5 11.5449 16.4552 11.5001 16.4 11.5001H7.6Z" fill="#CC3333"/>
<path fill-rule="evenodd" clip-rule="evenodd" d="M9.35356 14.3537C9.54882 14.1584 9.8654 14.1584 10.0607 14.3537L11.2071 15.5001L13.8536 12.8537C14.0488 12.6584 14.3654 12.6584 14.5607 12.8537C14.7559 13.0489 14.7559 13.3655 14.5607 13.5608L11.5607 16.5608C11.3654 16.756 11.0488 16.756 10.8536 16.5608L9.35356 15.0608C9.15829 14.8655 9.15829 14.5489 9.35356 14.3537Z" fill="#CC3333"/>
</svg>
