<svg width="101" height="20" viewBox="0 0 101 20" fill="none" xmlns="http://www.w3.org/2000/svg">
<path d="M11.5522 1.48468C11.1212 0.616433 9.87833 0.616433 9.44729 1.48468L7.37982 5.64922L2.75527 6.3213C1.79518 6.46083 1.40572 7.63923 2.10635 8.31774L5.45027 11.5561L4.6612 16.1305C4.49546 17.0913 5.50738 17.8124 6.36405 17.3645L10.4998 15.202L14.6355 17.3645C15.4921 17.8124 16.504 17.0913 16.3383 16.1305L15.5492 11.5561L18.8932 8.31774C19.5938 7.63923 19.2043 6.46083 18.2442 6.3213L13.6197 5.64922L11.5522 1.48468Z" fill="#F6BE00"/>
<path d="M31.5522 1.48468C31.1212 0.616433 29.8783 0.616433 29.4473 1.48468L27.3798 5.64922L22.7553 6.3213C21.7952 6.46083 21.4057 7.63923 22.1063 8.31774L25.4503 11.5561L24.6612 16.1305C24.4955 17.0913 25.5074 17.8124 26.364 17.3645L30.4998 15.202L34.6355 17.3645C35.4921 17.8124 36.504 17.0913 36.3383 16.1305L35.5492 11.5561L38.8932 8.31774C39.5938 7.63923 39.2043 6.46083 38.2442 6.3213L33.6197 5.64922L31.5522 1.48468Z" fill="#F6BE00"/>
<path d="M51.5522 1.48468C51.1212 0.616433 49.8783 0.616433 49.4473 1.48468L47.3798 5.64922L42.7553 6.3213C41.7952 6.46083 41.4057 7.63923 42.1063 8.31774L45.4503 11.5561L44.6612 16.1305C44.4955 17.0913 45.5074 17.8124 46.364 17.3645L50.4998 15.202L54.6355 17.3645C55.4921 17.8124 56.504 17.0913 56.3383 16.1305L55.5492 11.5561L58.8932 8.31774C59.5938 7.63923 59.2043 6.46083 58.2442 6.3213L53.6197 5.64922L51.5522 1.48468Z" fill="#F6BE00"/>
<path d="M71.5522 1.48468C71.1212 0.616433 69.8783 0.616433 69.4473 1.48468L67.3798 5.64922L62.7553 6.3213C61.7952 6.46083 61.4057 7.63923 62.1063 8.31774L65.4503 11.5561L64.6612 16.1305C64.4955 17.0913 65.5074 17.8124 66.364 17.3645L70.4998 15.202L74.6355 17.3645C75.4921 17.8124 76.504 17.0913 76.3383 16.1305L75.5492 11.5561L78.8932 8.31774C79.5938 7.63923 79.2043 6.46083 78.2442 6.3213L73.6197 5.64922L71.5522 1.48468Z" fill="#F6BE00"/>
<path d="M89.4473 1.4842L87.3798 5.64873L82.7553 6.32081C81.7952 6.46034 81.4057 7.63875 82.1063 8.31726L85.4503 11.5556L84.6612 16.13C84.4955 17.0908 85.5074 17.812 86.364 17.364L90.4998 15.2015L90.5 0.833008C90.0814 0.832923 89.6629 1.04999 89.4473 1.4842Z" fill="#F6BE00"/>
<path d="M91.5522 1.4842C91.1212 0.615945 89.8783 0.615945 89.4473 1.4842L87.3798 5.64873L82.7553 6.32081C81.7952 6.46034 81.4057 7.63875 82.1063 8.31726L85.4503 11.5556L84.6612 16.13C84.4955 17.0908 85.5074 17.812 86.364 17.364L90.4998 15.2015L94.6355 17.364C95.4921 17.812 96.504 17.0908 96.3383 16.13L95.5492 11.5556L98.8932 8.31726C99.5938 7.63874 99.2043 6.46034 98.2442 6.32081L93.6197 5.64873L91.5522 1.4842Z" fill="#F6BE00" fill-opacity="0.15"/>
</svg>
