<svg width="24" height="24" viewBox="0 0 24 24" fill="none" xmlns="http://www.w3.org/2000/svg">
<path fill-rule="evenodd" clip-rule="evenodd" d="M11.5257 3.21912C10.0457 1.73837 7.98611 1.2216 6.09131 1.64016L6.07779 1.64315L6.07783 1.64334C5.45913 1.7981 5.27829 2.5687 5.7102 3.00085L8.43236 5.72455L8.10143 8.10508L5.7228 8.43612L3.0008 5.71258C2.56837 5.2799 1.79788 5.46173 1.64335 6.08022L1.63999 6.09365L1.64018 6.09369C1.22192 7.98923 1.73827 10.0498 3.21814 11.5305C3.23966 11.5521 3.26295 11.5714 3.28765 11.5885C4.54142 12.8188 6.23891 13.366 7.84194 13.2323C9.15172 13.1231 10.4687 13.7193 11.4498 14.7009L18.5623 21.8174C18.5628 21.8179 18.5633 21.8184 18.5638 21.8189C19.46 22.7285 20.9157 22.7244 21.8195 21.8217C22.7271 20.9263 22.7243 19.375 21.8263 18.4702L20.5457 17.1115C20.3563 16.9106 20.0398 16.9012 19.8389 17.0906C19.6379 17.28 19.6286 17.5965 19.818 17.7974L21.1033 19.1611L21.1135 19.1716C21.6304 19.6887 21.6263 20.6085 21.1164 21.1106L21.1136 21.1134C20.5969 21.6304 19.7769 21.6263 19.2753 21.1162L19.2725 21.1134L19.2724 21.1134L12.1571 13.994C11.0183 12.8545 9.42601 12.0968 7.75885 12.2358C6.41064 12.3482 4.97954 11.8772 3.93845 10.8253C3.91755 10.8042 3.89497 10.7852 3.87102 10.7683C2.77896 9.64112 2.34267 8.12508 2.55003 6.67617L5.19149 9.31912C5.30233 9.43002 5.45877 9.48251 5.61407 9.4609L8.61355 9.04344C8.83501 9.01262 9.00908 8.83852 9.03987 8.61706L9.45709 5.61588C9.47866 5.4607 9.42625 5.30439 9.31551 5.19358L6.67341 2.54999C8.14515 2.33902 9.68633 2.79337 10.8183 3.92602C11.871 4.97926 12.3321 6.37971 12.2295 7.75509C12.1038 9.44091 12.8465 11.01 13.987 12.1511L13.9972 12.161L16.4185 14.449C16.6192 14.6387 16.9357 14.6297 17.1253 14.429C17.315 14.2283 17.306 13.9118 17.1053 13.7222L14.6893 11.4392C13.7128 10.4598 13.1271 9.16514 13.2267 7.82946C13.3497 6.18109 12.7959 4.4901 11.5257 3.21912Z" fill="#CC3333"/>
</svg>
