<svg width="18" height="20" viewBox="0 0 18 20" fill="none" xmlns="http://www.w3.org/2000/svg">
<path d="M14.8364 4.00904C13.7593 3.30654 12.9815 2.18284 12.739 0.872561C12.6866 0.589122 12.6579 0.29779 12.6579 0H9.21929L9.21355 13.7801C9.15543 15.3236 7.88605 16.5621 6.32893 16.5621C5.84529 16.5621 5.38964 16.4409 4.98852 16.2299C4.0686 15.7456 3.43858 14.7811 3.43858 13.6718C3.43858 12.0781 4.73522 10.7814 6.32893 10.7814C6.62672 10.7814 6.9116 10.8302 7.18212 10.9149V7.40456C6.90299 7.36653 6.61883 7.34285 6.32893 7.34285C2.83941 7.34285 0 10.1823 0 13.6718C0 15.813 1.06989 17.7081 2.70164 18.8533C3.72991 19.5752 4.97991 20 6.32893 20C9.81846 20 12.6579 17.1613 12.6579 13.6711V6.68341C14.0062 7.65141 15.6587 8.22187 17.4419 8.22187V4.7833C16.4818 4.7833 15.587 4.4977 14.8371 4.00832L14.8364 4.00904Z" fill="white" fill-opacity="0.7"/>
</svg>
