<svg width="24" height="24" viewBox="0 0 24 24" fill="none" xmlns="http://www.w3.org/2000/svg">
<path fill-rule="evenodd" clip-rule="evenodd" d="M19.0428 5.8855C19.8138 6.09308 20.4217 6.70098 20.6292 7.47198C21.0147 8.88055 20.9999 11.8163 20.9999 11.8163C20.9999 11.8163 20.9999 14.7372 20.6292 16.1458C20.4217 16.9168 19.8138 17.5247 19.0428 17.7322C17.6342 18.1029 12 18.1029 12 18.1029C12 18.1029 6.38055 18.1029 4.95716 17.7174C4.18616 17.5098 3.57825 16.9019 3.37067 16.1309C3 14.7372 3 11.8015 3 11.8015C3 11.8015 3 8.88055 3.37067 7.47198C3.57825 6.70098 4.20098 6.07825 4.95716 5.87067C6.36572 5.5 12 5.5 12 5.5C12 5.5 17.6342 5.5 19.0428 5.8855ZM14.8884 11.6985L10.2031 14.397V9L14.8884 11.6985Z" fill="white" fill-opacity="0.7"/>
</svg>
